  0
SECTION
  2
HEADER
  9
$ANGBASE
  50
0.0
  9
$ANGDIR
  70
1
  9
$MEASUREMENT
  70
1
  0
ENDSEC
  0
SECTION
  2
TABLES
  0
TABLE
  2
LTYPE
  70
4
  0
LTYPE
  5
40F
  2
CONTINUOUS
  70
0
  3
Solid line
  72
65
  73
0
  40
0.0
  0
LTYPE
  5
410
  2
DASHDOT
 70
0
  3
Dash Dot ____ _ ____ _
 72
65
 73
4
 40
2.0
 49
1.25
 49
-0.25
 49
0.25
 49
-0.25
  0
LTYPE
  5
411
  2
DASHED
 70
0
  3
Dashed __ __ __ __ __
 72
65
 73
2
 40
0.75
 49
0.5
 49
-0.25
  0
LTYPE
  5
43B
  2
DOTTED
 70
0
  3
Dotted .  .  .  .
 72
65
 73
2
 40
0.2
 49
0.0
 49
-0.2
  0
ENDTAB
  0
TABLE
  2
STYLE
  70
4
  0
STYLE
  2
KICAD
  70
0
  40
0
  41
1
  42
1
  50
0
  71
0
  3
isocp.shx
  0
STYLE
  2
KICADB
  70
0
  40
0
  41
1
  42
1
  50
0
  71
0
  3
isocp.shx
  0
STYLE
  2
KICADI
  70
0
  40
0
  41
1
  42
1
  50
15
  71
0
  3
isocp.shx
  0
STYLE
  2
KICADBI
  70
0
  40
0
  41
1
  42
1
  50
15
  71
0
  3
isocp.shx
  0
ENDTAB
  0
TABLE
  2
LAYER
  70
1
  0
LAYER
  2
BLACK
  70
0
  62
7
  6
CONTINUOUS
  0
ENDTAB
  0
ENDSEC
  0
SECTION
  2
ENTITIES
0
LINE
8
BLACK
6
CONTINUOUS
10
193.
20
-66.0049999999999955
11
193.
21
-67.0049999999999955
0
LINE
8
BLACK
6
CONTINUOUS
10
193.
20
-79.0049999999999955
11
193.
21
-80.0049999999999955
0
LINE
8
BLACK
6
CONTINUOUS
10
193.
20
-80.0049999999999955
11
194.
21
-80.0049999999999955
0
LINE
8
BLACK
6
CONTINUOUS
10
194.
20
-66.0049999999999955
11
193.
21
-66.0049999999999955
0
LINE
8
BLACK
6
CONTINUOUS
10
206.
20
-66.0049999999999955
11
207.
21
-66.0049999999999955
0
LINE
8
BLACK
6
CONTINUOUS
10
207.
20
-66.0049999999999955
11
207.
21
-67.0049999999999955
0
LINE
8
BLACK
6
CONTINUOUS
10
207.
20
-79.0049999999999955
11
207.
21
-80.0049999999999955
0
LINE
8
BLACK
6
CONTINUOUS
10
207.
20
-80.0049999999999955
11
206.
21
-80.0049999999999955
0
LINE
8
BLACK
6
CONTINUOUS
10
208.5275000000000034
20
-81.5324999999999989
11
191.477499999999992
21
-81.5324999999999989
0
LINE
8
BLACK
6
CONTINUOUS
10
191.477499999999992
20
-81.5324999999999989
11
191.477499999999992
21
-64.4825000000000017
0
LINE
8
BLACK
6
CONTINUOUS
10
191.477499999999992
20
-64.4825000000000017
11
208.5275000000000034
21
-64.4825000000000017
0
LINE
8
BLACK
6
CONTINUOUS
10
208.5275000000000034
20
-64.4825000000000017
11
208.5275000000000034
21
-81.5324999999999989
0
LINE
8
BLACK
6
CONTINUOUS
10
124.7999999999999972
20
-76.3554999999999922
11
124.7999999999999972
21
-77.3554999999999922
0
LINE
8
BLACK
6
CONTINUOUS
10
124.7999999999999972
20
-89.3554999999999922
11
124.7999999999999972
21
-90.3554999999999922
0
LINE
8
BLACK
6
CONTINUOUS
10
124.7999999999999972
20
-90.3554999999999922
11
125.7999999999999972
21
-90.3554999999999922
0
LINE
8
BLACK
6
CONTINUOUS
10
125.7999999999999972
20
-76.3554999999999922
11
124.7999999999999972
21
-76.3554999999999922
0
LINE
8
BLACK
6
CONTINUOUS
10
137.7999999999999829
20
-76.3554999999999922
11
138.7999999999999829
21
-76.3554999999999922
0
LINE
8
BLACK
6
CONTINUOUS
10
138.7999999999999829
20
-76.3554999999999922
11
138.7999999999999829
21
-77.3554999999999922
0
LINE
8
BLACK
6
CONTINUOUS
10
138.7999999999999829
20
-89.3554999999999922
11
138.7999999999999829
21
-90.3554999999999922
0
LINE
8
BLACK
6
CONTINUOUS
10
138.7999999999999829
20
-90.3554999999999922
11
137.7999999999999829
21
-90.3554999999999922
0
LINE
8
BLACK
6
CONTINUOUS
10
140.3274999999999864
20
-91.8829999999999956
11
123.2774999999999892
21
-91.8829999999999956
0
LINE
8
BLACK
6
CONTINUOUS
10
123.2774999999999892
20
-91.8829999999999956
11
123.2774999999999892
21
-74.8329999999999984
0
LINE
8
BLACK
6
CONTINUOUS
10
123.2774999999999892
20
-74.8329999999999984
11
140.3274999999999864
21
-74.8329999999999984
0
LINE
8
BLACK
6
CONTINUOUS
10
140.3274999999999864
20
-74.8329999999999984
11
140.3274999999999864
21
-91.8829999999999956
0
LINE
8
BLACK
6
CONTINUOUS
10
141.8499999999999943
20
-56.8051999999999992
11
141.8499999999999943
21
-57.8051999999999992
0
LINE
8
BLACK
6
CONTINUOUS
10
141.8499999999999943
20
-69.8051999999999992
11
141.8499999999999943
21
-70.8051999999999992
0
LINE
8
BLACK
6
CONTINUOUS
10
141.8499999999999943
20
-70.8051999999999992
11
142.8499999999999943
21
-70.8051999999999992
0
LINE
8
BLACK
6
CONTINUOUS
10
142.8499999999999943
20
-56.8051999999999992
11
141.8499999999999943
21
-56.8051999999999992
0
LINE
8
BLACK
6
CONTINUOUS
10
154.8499999999999943
20
-56.8051999999999992
11
155.8499999999999943
21
-56.8051999999999992
0
LINE
8
BLACK
6
CONTINUOUS
10
155.8499999999999943
20
-56.8051999999999992
11
155.8499999999999943
21
-57.8051999999999992
0
LINE
8
BLACK
6
CONTINUOUS
10
155.8499999999999943
20
-69.8051999999999992
11
155.8499999999999943
21
-70.8051999999999992
0
LINE
8
BLACK
6
CONTINUOUS
10
155.8499999999999943
20
-70.8051999999999992
11
154.8499999999999943
21
-70.8051999999999992
0
LINE
8
BLACK
6
CONTINUOUS
10
157.3774999999999977
20
-72.3327000000000027
11
140.3274999999999864
21
-72.3327000000000027
0
LINE
8
BLACK
6
CONTINUOUS
10
140.3274999999999864
20
-72.3327000000000027
11
140.3274999999999864
21
-55.2826999999999984
0
LINE
8
BLACK
6
CONTINUOUS
10
140.3274999999999864
20
-55.2826999999999984
11
157.3774999999999977
21
-55.2826999999999984
0
LINE
8
BLACK
6
CONTINUOUS
10
157.3774999999999977
20
-55.2826999999999984
11
157.3774999999999977
21
-72.3327000000000027
0
LINE
8
BLACK
6
CONTINUOUS
10
141.8499999999999943
20
-90.9051999999999936
11
141.8499999999999943
21
-91.9051999999999936
0
LINE
8
BLACK
6
CONTINUOUS
10
141.8499999999999943
20
-103.9051999999999936
11
141.8499999999999943
21
-104.9051999999999936
0
LINE
8
BLACK
6
CONTINUOUS
10
141.8499999999999943
20
-104.9051999999999936
11
142.8499999999999943
21
-104.9051999999999936
0
LINE
8
BLACK
6
CONTINUOUS
10
142.8499999999999943
20
-90.9051999999999936
11
141.8499999999999943
21
-90.9051999999999936
0
LINE
8
BLACK
6
CONTINUOUS
10
154.8499999999999943
20
-90.9051999999999936
11
155.8499999999999943
21
-90.9051999999999936
0
LINE
8
BLACK
6
CONTINUOUS
10
155.8499999999999943
20
-90.9051999999999936
11
155.8499999999999943
21
-91.9051999999999936
0
LINE
8
BLACK
6
CONTINUOUS
10
155.8499999999999943
20
-103.9051999999999936
11
155.8499999999999943
21
-104.9051999999999936
0
LINE
8
BLACK
6
CONTINUOUS
10
155.8499999999999943
20
-104.9051999999999936
11
154.8499999999999943
21
-104.9051999999999936
0
LINE
8
BLACK
6
CONTINUOUS
10
157.3774999999999977
20
-106.432699999999997
11
140.3274999999999864
21
-106.432699999999997
0
LINE
8
BLACK
6
CONTINUOUS
10
140.3274999999999864
20
-106.432699999999997
11
140.3274999999999864
21
-89.3826999999999998
0
LINE
8
BLACK
6
CONTINUOUS
10
140.3274999999999864
20
-89.3826999999999998
11
157.3774999999999977
21
-89.3826999999999998
0
LINE
8
BLACK
6
CONTINUOUS
10
157.3774999999999977
20
-89.3826999999999998
11
157.3774999999999977
21
-106.432699999999997
0
LINE
8
BLACK
6
CONTINUOUS
10
141.8499999999999943
20
-73.8551999999999964
11
141.8499999999999943
21
-74.8551999999999964
0
LINE
8
BLACK
6
CONTINUOUS
10
141.8499999999999943
20
-86.8551999999999964
11
141.8499999999999943
21
-87.8551999999999964
0
LINE
8
BLACK
6
CONTINUOUS
10
141.8499999999999943
20
-87.8551999999999964
11
142.8499999999999943
21
-87.8551999999999964
0
LINE
8
BLACK
6
CONTINUOUS
10
142.8499999999999943
20
-73.8551999999999964
11
141.8499999999999943
21
-73.8551999999999964
0
LINE
8
BLACK
6
CONTINUOUS
10
154.8499999999999943
20
-73.8551999999999964
11
155.8499999999999943
21
-73.8551999999999964
0
LINE
8
BLACK
6
CONTINUOUS
10
155.8499999999999943
20
-73.8551999999999964
11
155.8499999999999943
21
-74.8551999999999964
0
LINE
8
BLACK
6
CONTINUOUS
10
155.8499999999999943
20
-86.8551999999999964
11
155.8499999999999943
21
-87.8551999999999964
0
LINE
8
BLACK
6
CONTINUOUS
10
155.8499999999999943
20
-87.8551999999999964
11
154.8499999999999943
21
-87.8551999999999964
0
LINE
8
BLACK
6
CONTINUOUS
10
157.3774999999999977
20
-89.3826999999999998
11
140.3274999999999864
21
-89.3826999999999998
0
LINE
8
BLACK
6
CONTINUOUS
10
140.3274999999999864
20
-89.3826999999999998
11
140.3274999999999864
21
-72.3327000000000027
0
LINE
8
BLACK
6
CONTINUOUS
10
140.3274999999999864
20
-72.3327000000000027
11
157.3774999999999977
21
-72.3327000000000027
0
LINE
8
BLACK
6
CONTINUOUS
10
157.3774999999999977
20
-72.3327000000000027
11
157.3774999999999977
21
-89.3826999999999998
0
LINE
8
BLACK
6
CONTINUOUS
10
97.4544459999999901
20
-124.5587069999999983
11
97.7964659999999952
21
-125.498398999999992
0
LINE
8
BLACK
6
CONTINUOUS
10
98.3941379999999981
20
-124.2166869999999932
11
97.4544459999999901
21
-124.5587069999999983
0
LINE
8
BLACK
6
CONTINUOUS
10
101.9007079999999945
20
-136.7747109999999964
11
102.2427279999999996
21
-137.7144030000000043
0
LINE
8
BLACK
6
CONTINUOUS
10
102.2427279999999996
20
-137.7144030000000043
11
103.1824199999999934
21
-137.372382999999985
0
LINE
8
BLACK
6
CONTINUOUS
10
109.6704499999999882
20
-120.1124449999999939
11
110.6101419999999962
21
-119.7704249999999888
0
LINE
8
BLACK
6
CONTINUOUS
10
110.6101419999999962
20
-119.7704249999999888
11
110.9521620000000013
21
-120.7101169999999968
0
LINE
8
BLACK
6
CONTINUOUS
10
115.0564040000000006
20
-131.9864289999999869
11
115.3984239999999915
21
-132.9261209999999949
0
LINE
8
BLACK
6
CONTINUOUS
10
115.3984239999999915
20
-132.9261209999999949
11
114.4587319999999977
21
-133.2681409999999858
0
LINE
8
BLACK
6
CONTINUOUS
10
117.3562409999999971
20
-133.8390660000000025
11
101.3344809999999967
21
-139.6705089999999814
0
LINE
8
BLACK
6
CONTINUOUS
10
101.3344809999999967
20
-139.6705089999999814
11
95.5030379999999894
21
-123.6487499999999926
0
LINE
8
BLACK
6
CONTINUOUS
10
95.5030379999999894
20
-123.6487499999999926
11
111.5247969999999924
21
-117.8173069999999996
0
LINE
8
BLACK
6
CONTINUOUS
10
111.5247969999999924
20
-117.8173069999999996
11
117.3562409999999971
21
-133.8390660000000025
0
LINE
8
BLACK
6
CONTINUOUS
10
158.9000000000000057
20
-54.3049999999999997
11
158.9000000000000057
21
-55.3049999999999997
0
LINE
8
BLACK
6
CONTINUOUS
10
158.9000000000000057
20
-67.3049999999999926
11
158.9000000000000057
21
-68.3049999999999926
0
LINE
8
BLACK
6
CONTINUOUS
10
158.9000000000000057
20
-68.3049999999999926
11
159.9000000000000057
21
-68.3049999999999926
0
LINE
8
BLACK
6
CONTINUOUS
10
159.9000000000000057
20
-54.3049999999999997
11
158.9000000000000057
21
-54.3049999999999997
0
LINE
8
BLACK
6
CONTINUOUS
10
171.9000000000000057
20
-54.3049999999999997
11
172.9000000000000057
21
-54.3049999999999997
0
LINE
8
BLACK
6
CONTINUOUS
10
172.9000000000000057
20
-54.3049999999999997
11
172.9000000000000057
21
-55.3049999999999997
0
LINE
8
BLACK
6
CONTINUOUS
10
172.9000000000000057
20
-67.3049999999999926
11
172.9000000000000057
21
-68.3049999999999926
0
LINE
8
BLACK
6
CONTINUOUS
10
172.9000000000000057
20
-68.3049999999999926
11
171.9000000000000057
21
-68.3049999999999926
0
LINE
8
BLACK
6
CONTINUOUS
10
174.4274999999999807
20
-69.832499999999996
11
157.3774999999999977
21
-69.832499999999996
0
LINE
8
BLACK
6
CONTINUOUS
10
157.3774999999999977
20
-69.832499999999996
11
157.3774999999999977
21
-52.7824999999999989
0
LINE
8
BLACK
6
CONTINUOUS
10
157.3774999999999977
20
-52.7824999999999989
11
174.4274999999999807
21
-52.7824999999999989
0
LINE
8
BLACK
6
CONTINUOUS
10
174.4274999999999807
20
-52.7824999999999989
11
174.4274999999999807
21
-69.832499999999996
0
LINE
8
BLACK
6
CONTINUOUS
10
175.9499999999999886
20
-93.1054999999999922
11
175.9499999999999886
21
-94.1054999999999922
0
LINE
8
BLACK
6
CONTINUOUS
10
175.9499999999999886
20
-106.1054999999999922
11
175.9499999999999886
21
-107.1054999999999922
0
LINE
8
BLACK
6
CONTINUOUS
10
175.9499999999999886
20
-107.1054999999999922
11
176.9499999999999886
21
-107.1054999999999922
0
LINE
8
BLACK
6
CONTINUOUS
10
176.9499999999999886
20
-93.1054999999999922
11
175.9499999999999886
21
-93.1054999999999922
0
LINE
8
BLACK
6
CONTINUOUS
10
188.9499999999999886
20
-93.1054999999999922
11
189.9499999999999886
21
-93.1054999999999922
0
LINE
8
BLACK
6
CONTINUOUS
10
189.9499999999999886
20
-93.1054999999999922
11
189.9499999999999886
21
-94.1054999999999922
0
LINE
8
BLACK
6
CONTINUOUS
10
189.9499999999999886
20
-106.1054999999999922
11
189.9499999999999886
21
-107.1054999999999922
0
LINE
8
BLACK
6
CONTINUOUS
10
189.9499999999999886
20
-107.1054999999999922
11
188.9499999999999886
21
-107.1054999999999922
0
LINE
8
BLACK
6
CONTINUOUS
10
191.477499999999992
20
-108.6329999999999956
11
174.4274999999999807
21
-108.6329999999999956
0
LINE
8
BLACK
6
CONTINUOUS
10
174.4274999999999807
20
-108.6329999999999956
11
174.4274999999999807
21
-91.5829999999999984
0
LINE
8
BLACK
6
CONTINUOUS
10
174.4274999999999807
20
-91.5829999999999984
11
191.477499999999992
21
-91.5829999999999984
0
LINE
8
BLACK
6
CONTINUOUS
10
191.477499999999992
20
-91.5829999999999984
11
191.477499999999992
21
-108.6329999999999956
0
LINE
8
BLACK
6
CONTINUOUS
10
104.3699999999999903
20
-104.4200000000000017
11
107.8699999999999903
21
-104.4200000000000017
0
LINE
8
BLACK
6
CONTINUOUS
10
104.3699999999999903
20
-113.4200000000000017
11
104.3699999999999903
21
-104.4200000000000017
0
LINE
8
BLACK
6
CONTINUOUS
10
107.8699999999999903
20
-104.4200000000000017
11
107.8699999999999903
21
-113.4200000000000017
0
LINE
8
BLACK
6
CONTINUOUS
10
107.8699999999999903
20
-113.4200000000000017
11
104.3699999999999903
21
-113.4200000000000017
0
LINE
8
BLACK
6
CONTINUOUS
10
193.
20
-83.0549999999999926
11
193.
21
-84.0549999999999926
0
LINE
8
BLACK
6
CONTINUOUS
10
193.
20
-96.0549999999999926
11
193.
21
-97.0549999999999926
0
LINE
8
BLACK
6
CONTINUOUS
10
193.
20
-97.0549999999999926
11
194.
21
-97.0549999999999926
0
LINE
8
BLACK
6
CONTINUOUS
10
194.
20
-83.0549999999999926
11
193.
21
-83.0549999999999926
0
LINE
8
BLACK
6
CONTINUOUS
10
206.
20
-83.0549999999999926
11
207.
21
-83.0549999999999926
0
LINE
8
BLACK
6
CONTINUOUS
10
207.
20
-83.0549999999999926
11
207.
21
-84.0549999999999926
0
LINE
8
BLACK
6
CONTINUOUS
10
207.
20
-96.0549999999999926
11
207.
21
-97.0549999999999926
0
LINE
8
BLACK
6
CONTINUOUS
10
207.
20
-97.0549999999999926
11
206.
21
-97.0549999999999926
0
LINE
8
BLACK
6
CONTINUOUS
10
208.5275000000000034
20
-98.582499999999996
11
191.477499999999992
21
-98.582499999999996
0
LINE
8
BLACK
6
CONTINUOUS
10
191.477499999999992
20
-98.582499999999996
11
191.477499999999992
21
-81.5324999999999989
0
LINE
8
BLACK
6
CONTINUOUS
10
191.477499999999992
20
-81.5324999999999989
11
208.5275000000000034
21
-81.5324999999999989
0
LINE
8
BLACK
6
CONTINUOUS
10
208.5275000000000034
20
-81.5324999999999989
11
208.5275000000000034
21
-98.582499999999996
0
LINE
8
BLACK
6
CONTINUOUS
10
124.7999999999999972
20
-59.305499999999995
11
124.7999999999999972
21
-60.305499999999995
0
LINE
8
BLACK
6
CONTINUOUS
10
124.7999999999999972
20
-72.305499999999995
11
124.7999999999999972
21
-73.305499999999995
0
LINE
8
BLACK
6
CONTINUOUS
10
124.7999999999999972
20
-73.305499999999995
11
125.7999999999999972
21
-73.305499999999995
0
LINE
8
BLACK
6
CONTINUOUS
10
125.7999999999999972
20
-59.305499999999995
11
124.7999999999999972
21
-59.305499999999995
0
LINE
8
BLACK
6
CONTINUOUS
10
137.7999999999999829
20
-59.305499999999995
11
138.7999999999999829
21
-59.305499999999995
0
LINE
8
BLACK
6
CONTINUOUS
10
138.7999999999999829
20
-59.305499999999995
11
138.7999999999999829
21
-60.305499999999995
0
LINE
8
BLACK
6
CONTINUOUS
10
138.7999999999999829
20
-72.305499999999995
11
138.7999999999999829
21
-73.305499999999995
0
LINE
8
BLACK
6
CONTINUOUS
10
138.7999999999999829
20
-73.305499999999995
11
137.7999999999999829
21
-73.305499999999995
0
LINE
8
BLACK
6
CONTINUOUS
10
140.3274999999999864
20
-74.8329999999999984
11
123.2774999999999892
21
-74.8329999999999984
0
LINE
8
BLACK
6
CONTINUOUS
10
123.2774999999999892
20
-74.8329999999999984
11
123.2774999999999892
21
-57.7829999999999941
0
LINE
8
BLACK
6
CONTINUOUS
10
123.2774999999999892
20
-57.7829999999999941
11
140.3274999999999864
21
-57.7829999999999941
0
LINE
8
BLACK
6
CONTINUOUS
10
140.3274999999999864
20
-57.7829999999999941
11
140.3274999999999864
21
-74.8329999999999984
0
LINE
8
BLACK
6
CONTINUOUS
10
175.9499999999999886
20
-110.1554999999999893
11
175.9499999999999886
21
-111.1554999999999893
0
LINE
8
BLACK
6
CONTINUOUS
10
175.9499999999999886
20
-123.1554999999999893
11
175.9499999999999886
21
-124.1554999999999893
0
LINE
8
BLACK
6
CONTINUOUS
10
175.9499999999999886
20
-124.1554999999999893
11
176.9499999999999886
21
-124.1554999999999893
0
LINE
8
BLACK
6
CONTINUOUS
10
176.9499999999999886
20
-110.1554999999999893
11
175.9499999999999886
21
-110.1554999999999893
0
LINE
8
BLACK
6
CONTINUOUS
10
188.9499999999999886
20
-110.1554999999999893
11
189.9499999999999886
21
-110.1554999999999893
0
LINE
8
BLACK
6
CONTINUOUS
10
189.9499999999999886
20
-110.1554999999999893
11
189.9499999999999886
21
-111.1554999999999893
0
LINE
8
BLACK
6
CONTINUOUS
10
189.9499999999999886
20
-123.1554999999999893
11
189.9499999999999886
21
-124.1554999999999893
0
LINE
8
BLACK
6
CONTINUOUS
10
189.9499999999999886
20
-124.1554999999999893
11
188.9499999999999886
21
-124.1554999999999893
0
LINE
8
BLACK
6
CONTINUOUS
10
191.477499999999992
20
-125.6829999999999927
11
174.4274999999999807
21
-125.6829999999999927
0
LINE
8
BLACK
6
CONTINUOUS
10
174.4274999999999807
20
-125.6829999999999927
11
174.4274999999999807
21
-108.6329999999999956
0
LINE
8
BLACK
6
CONTINUOUS
10
174.4274999999999807
20
-108.6329999999999956
11
191.477499999999992
21
-108.6329999999999956
0
LINE
8
BLACK
6
CONTINUOUS
10
191.477499999999992
20
-108.6329999999999956
11
191.477499999999992
21
-125.6829999999999927
0
LINE
8
BLACK
6
CONTINUOUS
10
158.9000000000000057
20
-88.4050000000000011
11
158.9000000000000057
21
-89.4050000000000011
0
LINE
8
BLACK
6
CONTINUOUS
10
158.9000000000000057
20
-101.4050000000000011
11
158.9000000000000057
21
-102.4050000000000011
0
LINE
8
BLACK
6
CONTINUOUS
10
158.9000000000000057
20
-102.4050000000000011
11
159.9000000000000057
21
-102.4050000000000011
0
LINE
8
BLACK
6
CONTINUOUS
10
159.9000000000000057
20
-88.4050000000000011
11
158.9000000000000057
21
-88.4050000000000011
0
LINE
8
BLACK
6
CONTINUOUS
10
171.9000000000000057
20
-88.4050000000000011
11
172.9000000000000057
21
-88.4050000000000011
0
LINE
8
BLACK
6
CONTINUOUS
10
172.9000000000000057
20
-88.4050000000000011
11
172.9000000000000057
21
-89.4050000000000011
0
LINE
8
BLACK
6
CONTINUOUS
10
172.9000000000000057
20
-101.4050000000000011
11
172.9000000000000057
21
-102.4050000000000011
0
LINE
8
BLACK
6
CONTINUOUS
10
172.9000000000000057
20
-102.4050000000000011
11
171.9000000000000057
21
-102.4050000000000011
0
LINE
8
BLACK
6
CONTINUOUS
10
174.4274999999999807
20
-103.9324999999999903
11
157.3774999999999977
21
-103.9324999999999903
0
LINE
8
BLACK
6
CONTINUOUS
10
157.3774999999999977
20
-103.9324999999999903
11
157.3774999999999977
21
-86.8824999999999932
0
LINE
8
BLACK
6
CONTINUOUS
10
157.3774999999999977
20
-86.8824999999999932
11
174.4274999999999807
21
-86.8824999999999932
0
LINE
8
BLACK
6
CONTINUOUS
10
174.4274999999999807
20
-86.8824999999999932
11
174.4274999999999807
21
-103.9324999999999903
0
LINE
8
BLACK
6
CONTINUOUS
10
107.75
20
-97.9299999999999926
11
107.75
21
-98.9299999999999926
0
LINE
8
BLACK
6
CONTINUOUS
10
107.75
20
-110.9299999999999926
11
107.75
21
-111.9299999999999926
0
LINE
8
BLACK
6
CONTINUOUS
10
107.75
20
-111.9299999999999926
11
108.75
21
-111.9299999999999926
0
LINE
8
BLACK
6
CONTINUOUS
10
108.75
20
-97.9299999999999926
11
107.75
21
-97.9299999999999926
0
LINE
8
BLACK
6
CONTINUOUS
10
120.75
20
-97.9299999999999926
11
121.75
21
-97.9299999999999926
0
LINE
8
BLACK
6
CONTINUOUS
10
121.75
20
-97.9299999999999926
11
121.75
21
-98.9299999999999926
0
LINE
8
BLACK
6
CONTINUOUS
10
121.75
20
-110.9299999999999926
11
121.75
21
-111.9299999999999926
0
LINE
8
BLACK
6
CONTINUOUS
10
121.75
20
-111.9299999999999926
11
120.75
21
-111.9299999999999926
0
LINE
8
BLACK
6
CONTINUOUS
10
123.2774999999999892
20
-113.457499999999996
11
106.227499999999992
21
-113.457499999999996
0
LINE
8
BLACK
6
CONTINUOUS
10
106.227499999999992
20
-113.457499999999996
11
106.227499999999992
21
-96.4074999999999989
0
LINE
8
BLACK
6
CONTINUOUS
10
106.227499999999992
20
-96.4074999999999989
11
123.2774999999999892
21
-96.4074999999999989
0
LINE
8
BLACK
6
CONTINUOUS
10
123.2774999999999892
20
-96.4074999999999989
11
123.2774999999999892
21
-113.457499999999996
0
LINE
8
BLACK
6
CONTINUOUS
10
193.
20
-117.1550000000000011
11
193.
21
-118.1550000000000011
0
LINE
8
BLACK
6
CONTINUOUS
10
193.
20
-130.1550000000000011
11
193.
21
-131.1550000000000011
0
LINE
8
BLACK
6
CONTINUOUS
10
193.
20
-131.1550000000000011
11
194.
21
-131.1550000000000011
0
LINE
8
BLACK
6
CONTINUOUS
10
194.
20
-117.1550000000000011
11
193.
21
-117.1550000000000011
0
LINE
8
BLACK
6
CONTINUOUS
10
206.
20
-117.1550000000000011
11
207.
21
-117.1550000000000011
0
LINE
8
BLACK
6
CONTINUOUS
10
207.
20
-117.1550000000000011
11
207.
21
-118.1550000000000011
0
LINE
8
BLACK
6
CONTINUOUS
10
207.
20
-130.1550000000000011
11
207.
21
-131.1550000000000011
0
LINE
8
BLACK
6
CONTINUOUS
10
207.
20
-131.1550000000000011
11
206.
21
-131.1550000000000011
0
LINE
8
BLACK
6
CONTINUOUS
10
208.5275000000000034
20
-132.6825000000000045
11
191.477499999999992
21
-132.6825000000000045
0
LINE
8
BLACK
6
CONTINUOUS
10
191.477499999999992
20
-132.6825000000000045
11
191.477499999999992
21
-115.6324999999999932
0
LINE
8
BLACK
6
CONTINUOUS
10
191.477499999999992
20
-115.6324999999999932
11
208.5275000000000034
21
-115.6324999999999932
0
LINE
8
BLACK
6
CONTINUOUS
10
208.5275000000000034
20
-115.6324999999999932
11
208.5275000000000034
21
-132.6825000000000045
0
LINE
8
BLACK
6
CONTINUOUS
10
116.5407809999999955
20
-118.1914379999999909
11
116.714429999999993
21
-119.1762459999999919
0
LINE
8
BLACK
6
CONTINUOUS
10
117.5255889999999965
20
-118.0177899999999909
11
116.5407809999999955
21
-118.1914379999999909
0
LINE
8
BLACK
6
CONTINUOUS
10
118.7982079999999883
20
-130.9939389999999833
11
118.9718559999999883
21
-131.9787469999999985
0
LINE
8
BLACK
6
CONTINUOUS
10
118.9718559999999883
20
-131.9787469999999985
11
119.9566639999999893
21
-131.8050979999999868
0
LINE
8
BLACK
6
CONTINUOUS
10
129.3432819999999879
20
-115.9340119999999956
11
130.3280900000000031
21
-115.7603629999999981
0
LINE
8
BLACK
6
CONTINUOUS
10
130.3280900000000031
20
-115.7603629999999981
11
130.5017379999999889
21
-116.7451709999999991
0
LINE
8
BLACK
6
CONTINUOUS
10
132.5855159999999842
20
-128.5628639999999905
11
132.7591649999999959
21
-129.5476720000000057
0
LINE
8
BLACK
6
CONTINUOUS
10
132.7591649999999959
20
-129.5476720000000057
11
131.7743569999999806
21
-129.7213199999999915
0
LINE
8
BLACK
6
CONTINUOUS
10
134.5287059999999997
20
-130.7867180000000076
11
117.737733999999989
21
-133.7474200000000053
0
LINE
8
BLACK
6
CONTINUOUS
10
117.737733999999989
20
-133.7474200000000053
11
114.7770319999999913
21
-116.9564479999999946
0
LINE
8
BLACK
6
CONTINUOUS
10
114.7770319999999913
20
-116.9564479999999946
11
131.5680049999999994
21
-113.9957459999999969
0
LINE
8
BLACK
6
CONTINUOUS
10
131.5680049999999994
20
-113.9957459999999969
11
134.5287059999999997
21
-130.7867180000000076
0
LINE
8
BLACK
6
CONTINUOUS
10
124.7999999999999972
20
-93.4054999999999893
11
124.7999999999999972
21
-94.4054999999999893
0
LINE
8
BLACK
6
CONTINUOUS
10
124.7999999999999972
20
-106.4054999999999893
11
124.7999999999999972
21
-107.4054999999999893
0
LINE
8
BLACK
6
CONTINUOUS
10
124.7999999999999972
20
-107.4054999999999893
11
125.7999999999999972
21
-107.4054999999999893
0
LINE
8
BLACK
6
CONTINUOUS
10
125.7999999999999972
20
-93.4054999999999893
11
124.7999999999999972
21
-93.4054999999999893
0
LINE
8
BLACK
6
CONTINUOUS
10
137.7999999999999829
20
-93.4054999999999893
11
138.7999999999999829
21
-93.4054999999999893
0
LINE
8
BLACK
6
CONTINUOUS
10
138.7999999999999829
20
-93.4054999999999893
11
138.7999999999999829
21
-94.4054999999999893
0
LINE
8
BLACK
6
CONTINUOUS
10
138.7999999999999829
20
-106.4054999999999893
11
138.7999999999999829
21
-107.4054999999999893
0
LINE
8
BLACK
6
CONTINUOUS
10
138.7999999999999829
20
-107.4054999999999893
11
137.7999999999999829
21
-107.4054999999999893
0
LINE
8
BLACK
6
CONTINUOUS
10
140.3274999999999864
20
-108.9329999999999927
11
123.2774999999999892
21
-108.9329999999999927
0
LINE
8
BLACK
6
CONTINUOUS
10
123.2774999999999892
20
-108.9329999999999927
11
123.2774999999999892
21
-91.8829999999999956
0
LINE
8
BLACK
6
CONTINUOUS
10
123.2774999999999892
20
-91.8829999999999956
11
140.3274999999999864
21
-91.8829999999999956
0
LINE
8
BLACK
6
CONTINUOUS
10
140.3274999999999864
20
-91.8829999999999956
11
140.3274999999999864
21
-108.9329999999999927
0
LINE
8
BLACK
6
CONTINUOUS
10
193.
20
-100.1049999999999898
11
193.
21
-101.1049999999999898
0
LINE
8
BLACK
6
CONTINUOUS
10
193.
20
-113.1049999999999898
11
193.
21
-114.1049999999999898
0
LINE
8
BLACK
6
CONTINUOUS
10
193.
20
-114.1049999999999898
11
194.
21
-114.1049999999999898
0
LINE
8
BLACK
6
CONTINUOUS
10
194.
20
-100.1049999999999898
11
193.
21
-100.1049999999999898
0
LINE
8
BLACK
6
CONTINUOUS
10
206.
20
-100.1049999999999898
11
207.
21
-100.1049999999999898
0
LINE
8
BLACK
6
CONTINUOUS
10
207.
20
-100.1049999999999898
11
207.
21
-101.1049999999999898
0
LINE
8
BLACK
6
CONTINUOUS
10
207.
20
-113.1049999999999898
11
207.
21
-114.1049999999999898
0
LINE
8
BLACK
6
CONTINUOUS
10
207.
20
-114.1049999999999898
11
206.
21
-114.1049999999999898
0
LINE
8
BLACK
6
CONTINUOUS
10
208.5275000000000034
20
-115.6324999999999932
11
191.477499999999992
21
-115.6324999999999932
0
LINE
8
BLACK
6
CONTINUOUS
10
191.477499999999992
20
-115.6324999999999932
11
191.477499999999992
21
-98.582499999999996
0
LINE
8
BLACK
6
CONTINUOUS
10
191.477499999999992
20
-98.582499999999996
11
208.5275000000000034
21
-98.582499999999996
0
LINE
8
BLACK
6
CONTINUOUS
10
208.5275000000000034
20
-98.582499999999996
11
208.5275000000000034
21
-115.6324999999999932
0
LINE
8
BLACK
6
CONTINUOUS
10
136.4050000000000011
20
-115.2349999999999994
11
136.4050000000000011
21
-116.2349999999999994
0
LINE
8
BLACK
6
CONTINUOUS
10
136.4050000000000011
20
-128.2349999999999852
11
136.4050000000000011
21
-129.2349999999999852
0
LINE
8
BLACK
6
CONTINUOUS
10
136.4050000000000011
20
-129.2349999999999852
11
137.4050000000000011
21
-129.2349999999999852
0
LINE
8
BLACK
6
CONTINUOUS
10
137.4050000000000011
20
-115.2349999999999994
11
136.4050000000000011
21
-115.2349999999999994
0
LINE
8
BLACK
6
CONTINUOUS
10
149.4050000000000011
20
-115.2349999999999994
11
150.4050000000000011
21
-115.2349999999999994
0
LINE
8
BLACK
6
CONTINUOUS
10
150.4050000000000011
20
-115.2349999999999994
11
150.4050000000000011
21
-116.2349999999999994
0
LINE
8
BLACK
6
CONTINUOUS
10
150.4050000000000011
20
-128.2349999999999852
11
150.4050000000000011
21
-129.2349999999999852
0
LINE
8
BLACK
6
CONTINUOUS
10
150.4050000000000011
20
-129.2349999999999852
11
149.4050000000000011
21
-129.2349999999999852
0
LINE
8
BLACK
6
CONTINUOUS
10
151.9325000000000045
20
-130.7624999999999886
11
134.8824999999999932
21
-130.7624999999999886
0
LINE
8
BLACK
6
CONTINUOUS
10
134.8824999999999932
20
-130.7624999999999886
11
134.8824999999999932
21
-113.7124999999999915
0
LINE
8
BLACK
6
CONTINUOUS
10
134.8824999999999932
20
-113.7124999999999915
11
151.9325000000000045
21
-113.7124999999999915
0
LINE
8
BLACK
6
CONTINUOUS
10
151.9325000000000045
20
-113.7124999999999915
11
151.9325000000000045
21
-130.7624999999999886
0
LINE
8
BLACK
6
CONTINUOUS
10
175.9499999999999886
20
-59.0054999999999978
11
175.9499999999999886
21
-60.0054999999999978
0
LINE
8
BLACK
6
CONTINUOUS
10
175.9499999999999886
20
-72.0054999999999978
11
175.9499999999999886
21
-73.0054999999999978
0
LINE
8
BLACK
6
CONTINUOUS
10
175.9499999999999886
20
-73.0054999999999978
11
176.9499999999999886
21
-73.0054999999999978
0
LINE
8
BLACK
6
CONTINUOUS
10
176.9499999999999886
20
-59.0054999999999978
11
175.9499999999999886
21
-59.0054999999999978
0
LINE
8
BLACK
6
CONTINUOUS
10
188.9499999999999886
20
-59.0054999999999978
11
189.9499999999999886
21
-59.0054999999999978
0
LINE
8
BLACK
6
CONTINUOUS
10
189.9499999999999886
20
-59.0054999999999978
11
189.9499999999999886
21
-60.0054999999999978
0
LINE
8
BLACK
6
CONTINUOUS
10
189.9499999999999886
20
-72.0054999999999978
11
189.9499999999999886
21
-73.0054999999999978
0
LINE
8
BLACK
6
CONTINUOUS
10
189.9499999999999886
20
-73.0054999999999978
11
188.9499999999999886
21
-73.0054999999999978
0
LINE
8
BLACK
6
CONTINUOUS
10
191.477499999999992
20
-74.5330000000000013
11
174.4274999999999807
21
-74.5330000000000013
0
LINE
8
BLACK
6
CONTINUOUS
10
174.4274999999999807
20
-74.5330000000000013
11
174.4274999999999807
21
-57.482999999999997
0
LINE
8
BLACK
6
CONTINUOUS
10
174.4274999999999807
20
-57.482999999999997
11
191.477499999999992
21
-57.482999999999997
0
LINE
8
BLACK
6
CONTINUOUS
10
191.477499999999992
20
-57.482999999999997
11
191.477499999999992
21
-74.5330000000000013
0
LINE
8
BLACK
6
CONTINUOUS
10
158.9000000000000057
20
-105.4549999999999983
11
158.9000000000000057
21
-106.4549999999999983
0
LINE
8
BLACK
6
CONTINUOUS
10
158.9000000000000057
20
-118.4549999999999983
11
158.9000000000000057
21
-119.4549999999999983
0
LINE
8
BLACK
6
CONTINUOUS
10
158.9000000000000057
20
-119.4549999999999983
11
159.9000000000000057
21
-119.4549999999999983
0
LINE
8
BLACK
6
CONTINUOUS
10
159.9000000000000057
20
-105.4549999999999983
11
158.9000000000000057
21
-105.4549999999999983
0
LINE
8
BLACK
6
CONTINUOUS
10
171.9000000000000057
20
-105.4549999999999983
11
172.9000000000000057
21
-105.4549999999999983
0
LINE
8
BLACK
6
CONTINUOUS
10
172.9000000000000057
20
-105.4549999999999983
11
172.9000000000000057
21
-106.4549999999999983
0
LINE
8
BLACK
6
CONTINUOUS
10
172.9000000000000057
20
-118.4549999999999983
11
172.9000000000000057
21
-119.4549999999999983
0
LINE
8
BLACK
6
CONTINUOUS
10
172.9000000000000057
20
-119.4549999999999983
11
171.9000000000000057
21
-119.4549999999999983
0
LINE
8
BLACK
6
CONTINUOUS
10
174.4274999999999807
20
-120.9824999999999875
11
157.3774999999999977
21
-120.9824999999999875
0
LINE
8
BLACK
6
CONTINUOUS
10
157.3774999999999977
20
-120.9824999999999875
11
157.3774999999999977
21
-103.9324999999999903
0
LINE
8
BLACK
6
CONTINUOUS
10
157.3774999999999977
20
-103.9324999999999903
11
174.4274999999999807
21
-103.9324999999999903
0
LINE
8
BLACK
6
CONTINUOUS
10
174.4274999999999807
20
-103.9324999999999903
11
174.4274999999999807
21
-120.9824999999999875
0
LINE
8
BLACK
6
CONTINUOUS
10
158.9000000000000057
20
-71.3549999999999898
11
158.9000000000000057
21
-72.3549999999999898
0
LINE
8
BLACK
6
CONTINUOUS
10
158.9000000000000057
20
-84.3549999999999898
11
158.9000000000000057
21
-85.3549999999999898
0
LINE
8
BLACK
6
CONTINUOUS
10
158.9000000000000057
20
-85.3549999999999898
11
159.9000000000000057
21
-85.3549999999999898
0
LINE
8
BLACK
6
CONTINUOUS
10
159.9000000000000057
20
-71.3549999999999898
11
158.9000000000000057
21
-71.3549999999999898
0
LINE
8
BLACK
6
CONTINUOUS
10
171.9000000000000057
20
-71.3549999999999898
11
172.9000000000000057
21
-71.3549999999999898
0
LINE
8
BLACK
6
CONTINUOUS
10
172.9000000000000057
20
-71.3549999999999898
11
172.9000000000000057
21
-72.3549999999999898
0
LINE
8
BLACK
6
CONTINUOUS
10
172.9000000000000057
20
-84.3549999999999898
11
172.9000000000000057
21
-85.3549999999999898
0
LINE
8
BLACK
6
CONTINUOUS
10
172.9000000000000057
20
-85.3549999999999898
11
171.9000000000000057
21
-85.3549999999999898
0
LINE
8
BLACK
6
CONTINUOUS
10
174.4274999999999807
20
-86.8824999999999932
11
157.3774999999999977
21
-86.8824999999999932
0
LINE
8
BLACK
6
CONTINUOUS
10
157.3774999999999977
20
-86.8824999999999932
11
157.3774999999999977
21
-69.832499999999996
0
LINE
8
BLACK
6
CONTINUOUS
10
157.3774999999999977
20
-69.832499999999996
11
174.4274999999999807
21
-69.832499999999996
0
LINE
8
BLACK
6
CONTINUOUS
10
174.4274999999999807
20
-69.832499999999996
11
174.4274999999999807
21
-86.8824999999999932
0
LINE
8
BLACK
6
CONTINUOUS
10
175.9499999999999886
20
-76.055499999999995
11
175.9499999999999886
21
-77.055499999999995
0
LINE
8
BLACK
6
CONTINUOUS
10
175.9499999999999886
20
-89.055499999999995
11
175.9499999999999886
21
-90.055499999999995
0
LINE
8
BLACK
6
CONTINUOUS
10
175.9499999999999886
20
-90.055499999999995
11
176.9499999999999886
21
-90.055499999999995
0
LINE
8
BLACK
6
CONTINUOUS
10
176.9499999999999886
20
-76.055499999999995
11
175.9499999999999886
21
-76.055499999999995
0
LINE
8
BLACK
6
CONTINUOUS
10
188.9499999999999886
20
-76.055499999999995
11
189.9499999999999886
21
-76.055499999999995
0
LINE
8
BLACK
6
CONTINUOUS
10
189.9499999999999886
20
-76.055499999999995
11
189.9499999999999886
21
-77.055499999999995
0
LINE
8
BLACK
6
CONTINUOUS
10
189.9499999999999886
20
-89.055499999999995
11
189.9499999999999886
21
-90.055499999999995
0
LINE
8
BLACK
6
CONTINUOUS
10
189.9499999999999886
20
-90.055499999999995
11
188.9499999999999886
21
-90.055499999999995
0
LINE
8
BLACK
6
CONTINUOUS
10
191.477499999999992
20
-91.5829999999999984
11
174.4274999999999807
21
-91.5829999999999984
0
LINE
8
BLACK
6
CONTINUOUS
10
174.4274999999999807
20
-91.5829999999999984
11
174.4274999999999807
21
-74.5330000000000013
0
LINE
8
BLACK
6
CONTINUOUS
10
174.4274999999999807
20
-74.5330000000000013
11
191.477499999999992
21
-74.5330000000000013
0
LINE
8
BLACK
6
CONTINUOUS
10
191.477499999999992
20
-74.5330000000000013
11
191.477499999999992
21
-91.5829999999999984
0
LINE
8
BLACK
6
CONTINUOUS
10
105.3900000000000006
20
-79.1599999999999966
11
123.1699999999999875
21
-79.1599999999999966
0
LINE
8
BLACK
6
CONTINUOUS
10
123.1699999999999875
20
-79.1599999999999966
11
123.1699999999999875
21
-58.1599999999999966
0
LINE
8
BLACK
6
CONTINUOUS
10
123.1699999999999875
20
-58.1599999999999966
11
105.3900000000000006
21
-58.1599999999999966
0
LINE
8
BLACK
6
CONTINUOUS
10
105.3900000000000006
20
-58.1599999999999966
11
105.3900000000000006
21
-79.1599999999999966
0
LINE
8
BLACK
6
CONTINUOUS
10
108.9941889999999916
20
-61.8741869999999992
11
110.7721889999999973
21
-61.8741869999999992
0
LINE
8
BLACK
6
CONTINUOUS
10
110.7721889999999973
20
-61.8741869999999992
11
110.7721889999999973
21
-64.5411869999999936
0
LINE
8
BLACK
6
CONTINUOUS
10
110.7721889999999973
20
-64.5411869999999936
11
108.9941889999999916
21
-64.5411869999999936
0
LINE
8
BLACK
6
CONTINUOUS
10
108.9941889999999916
20
-64.5411869999999936
11
108.9941889999999916
21
-61.8741869999999992
0
LINE
8
BLACK
6
CONTINUOUS
10
110.7721889999999973
20
-60.4771870000000007
11
108.9941889999999916
21
-60.4771870000000007
0
LINE
8
BLACK
6
CONTINUOUS
10
108.9941889999999916
20
-60.4771870000000007
11
108.9941889999999916
21
-57.8101869999999991
0
LINE
8
BLACK
6
CONTINUOUS
10
108.9941889999999916
20
-57.8101869999999991
11
110.7721889999999973
21
-57.8101869999999991
0
LINE
8
BLACK
6
CONTINUOUS
10
110.7721889999999973
20
-57.8101869999999991
11
110.7721889999999973
21
-60.4771870000000007
0
LINE
8
BLACK
6
CONTINUOUS
10
117.6301969999999955
20
-57.8101869999999991
11
119.4081970000000013
21
-57.8101869999999991
0
LINE
8
BLACK
6
CONTINUOUS
10
119.4081970000000013
20
-57.8101869999999991
11
119.4081970000000013
21
-60.4771870000000007
0
LINE
8
BLACK
6
CONTINUOUS
10
119.4081970000000013
20
-60.4771870000000007
11
117.6301969999999955
21
-60.4771870000000007
0
LINE
8
BLACK
6
CONTINUOUS
10
117.6301969999999955
20
-60.4771870000000007
11
117.6301969999999955
21
-57.8101869999999991
0
LINE
8
BLACK
6
CONTINUOUS
10
117.6301969999999955
20
-61.8741869999999992
11
119.4081970000000013
21
-61.8741869999999992
0
LINE
8
BLACK
6
CONTINUOUS
10
119.4081970000000013
20
-61.8741869999999992
11
119.4081970000000013
21
-64.5411869999999936
0
LINE
8
BLACK
6
CONTINUOUS
10
119.4081970000000013
20
-64.5411869999999936
11
117.6301969999999955
21
-64.5411869999999936
0
LINE
8
BLACK
6
CONTINUOUS
10
117.6301969999999955
20
-64.5411869999999936
11
117.6301969999999955
21
-61.8741869999999992
0
LINE
8
BLACK
6
CONTINUOUS
10
105.9399999999999977
20
-80.5699999999999932
11
105.9399999999999977
21
-95.0699999999999932
0
LINE
8
BLACK
6
CONTINUOUS
10
105.9399999999999977
20
-80.5699999999999932
11
121.539999999999992
21
-80.5699999999999932
0
LINE
8
BLACK
6
CONTINUOUS
10
121.539999999999992
20
-95.0699999999999932
11
105.9399999999999977
21
-95.0699999999999932
0
LINE
8
BLACK
6
CONTINUOUS
10
121.539999999999992
20
-95.0699999999999932
11
121.539999999999992
21
-80.5699999999999932
0
CIRCLE
8
BLACK
10
149.6200000000000045
20
-110.4599999999999937
40
2.4499999999999997
0
CIRCLE
8
BLACK
10
190.1799999999999784
20
-129.5699999999999932
40
2.4499999999999997
0
CIRCLE
8
BLACK
10
140.3199999999999932
20
-55.279999999999994
40
2.4499999999999997
0
CIRCLE
8
BLACK
10
112.25
20
-116.0099999999999909
40
2.4499999999999997
0
CIRCLE
8
BLACK
10
191.8100000000000023
20
-57.1799999999999997
40
2.4499999999999997
0
LINE
8
BLACK
6
CONTINUOUS
10
108.0899999999999892
20
-82.7199999999999989
11
109.0899999999999892
21
-81.6199999999999903
0
LINE
8
BLACK
6
CONTINUOUS
10
108.0899999999999892
20
-94.019999999999996
11
108.0899999999999892
21
-82.7199999999999989
0
LINE
8
BLACK
6
CONTINUOUS
10
109.0899999999999892
20
-81.6199999999999903
11
121.289999999999992
21
-81.6199999999999903
0
LINE
8
BLACK
6
CONTINUOUS
10
111.6899999999999977
20
-87.8199999999999932
11
117.6899999999999977
21
-87.8199999999999932
0
LINE
8
BLACK
6
CONTINUOUS
10
114.6899999999999977
20
-84.8199999999999932
11
114.6899999999999977
21
-90.8199999999999932
0
LINE
8
BLACK
6
CONTINUOUS
10
121.289999999999992
20
-81.6199999999999903
11
121.289999999999992
21
-94.019999999999996
0
LINE
8
BLACK
6
CONTINUOUS
10
121.289999999999992
20
-94.019999999999996
11
108.0899999999999892
21
-94.019999999999996
0
CIRCLE
8
BLACK
10
114.6899999999999977
20
-87.8199999999999932
40
3.
0
LINE
8
BLACK
6
CONTINUOUS
10
104.3079919999999987
20
-119.3703029999999927
11
104.3100000000000023
21
-59.1199999999999974
0
LINE
8
BLACK
6
CONTINUOUS
10
174.7699979999999869
20
-121.9799999999999898
11
174.7699979999999869
21
-124.6799989999999951
0
LINE
8
BLACK
6
CONTINUOUS
10
138.8799999999999955
20
-52.4799999999999969
11
156.5499969999999905
21
-52.4799999999999969
0
LINE
8
BLACK
6
CONTINUOUS
10
187.4449979999999982
20
-126.6799999999999926
11
187.4399999999999977
21
-131.4000000000000057
0
LINE
8
BLACK
6
CONTINUOUS
10
174.4499999999999886
20
-50.9799999999999969
11
174.4499999999999886
21
-53.5599999999999952
0
LINE
8
BLACK
6
CONTINUOUS
10
157.5499969999999905
20
-51.4799999999999969
11
157.5499969999999905
21
-50.9799999999999969
0
ARC
8
BLACK
10
103.3079999999999927
20
-119.3703000000000003
40
0.9999920000044999
50
-70.00122913
51
-0.00017189
0
ARC
8
BLACK
10
122.440100000000001
20
-57.1100999999999956
40
0.9999000050004999
50
-90.00573015
51
0.00573015
0
ARC
8
BLACK
10
97.2439999999999998
20
-123.7036999999999978
40
0.9999914183361774
50
-250.00122913
51
-160.00074438
0
ARC
8
BLACK
10
136.8800999999999988
20
-53.9801000000000002
40
0.9999000055130512
50
-90.00573018
51
0.00601666
0
ARC
8
BLACK
10
138.8800999999999988
20
-53.4801000000000002
40
1.0001000049994999
50
90.00572901
51
179.99427099
0
LINE
8
BLACK
6
CONTINUOUS
10
102.7231489999999923
20
-138.796999999999997
11
116.7828569999999928
21
-133.6802739999999972
0
LINE
8
BLACK
6
CONTINUOUS
10
122.4399999999999977
20
-58.1099999999999994
11
105.3100000000000023
21
-58.1199999999999974
0
ARC
8
BLACK
10
186.4449999999999932
20
-126.6799999999999926
40
1.000000000002
50
0.00000000
51
90.00011459
0
ARC
8
BLACK
10
154.5200999999999851
20
-109.2700999999999993
40
1.0001000049994999
50
90.00572901
51
179.99427099
0
ARC
8
BLACK
10
156.3700000000000045
20
-109.269999999999996
40
1.
50
0.00000000
51
90.00000000
0
ARC
8
BLACK
10
188.4399999999999977
20
-131.4000000000000057
40
1.
50
-180.00000000
51
-90.00000000
0
LINE
8
BLACK
6
CONTINUOUS
10
158.5499969999999905
20
-49.9799999999999969
11
173.4499999999999886
21
-49.9799999999999969
0
ARC
8
BLACK
10
134.9509999999999934
20
-132.4805999999999813
40
1.9996025408968152
50
89.99954154
51
99.23777108
0
LINE
8
BLACK
6
CONTINUOUS
10
175.7699979999999869
20
-125.6799989999999951
11
186.4449979999999982
21
-125.6799999999999926
0
LINE
8
BLACK
6
CONTINUOUS
10
124.4399999999999977
20
-54.9799999999999969
11
136.8799999999999955
21
-54.9799949999999953
0
LINE
8
BLACK
6
CONTINUOUS
10
157.3700000000000045
20
-109.269999999999996
11
157.3700000000000045
21
-119.9799999999999898
0
LINE
8
BLACK
6
CONTINUOUS
10
195.3999999999999773
20
-60.769999999999996
11
209.3199999999999932
21
-60.769999999999996
0
ARC
8
BLACK
10
195.4001999999999839
20
-59.7697999999999965
40
1.0002000199960006
50
-179.98854314
51
-90.01145686
0
LINE
8
BLACK
6
CONTINUOUS
10
153.5228740000000016
20
-129.4828739999999812
11
153.5199999999999818
21
-109.269999999999996
0
ARC
8
BLACK
10
175.4498999999999853
20
-53.5600999999999985
40
0.9999000050004999
50
-180.00573015
51
-89.99426985
0
LINE
8
BLACK
6
CONTINUOUS
10
103.6499999999999915
20
-120.3099999999999881
11
96.902000000000001
21
-122.7639999999999958
0
ARC
8
BLACK
10
173.4498999999999853
20
-50.9801000000000002
40
1.0001000049994999
50
0.00572901
51
89.99427099
0
LINE
8
BLACK
6
CONTINUOUS
10
117.1208919999999978
20
-133.5944979999999873
11
134.6299999999999955
21
-130.5069309999999803
0
LINE
8
BLACK
6
CONTINUOUS
10
96.3043109999999984
20
-124.0457049999999981
11
101.4539259999999956
21
-138.1948620000000005
0
LINE
8
BLACK
6
CONTINUOUS
10
188.4449979999999982
20
-132.4000000000000057
11
209.3179999999999836
21
-132.3829999999999814
0
ARC
8
BLACK
10
117.441599999999994
20
-135.5674999999999955
40
1.9988907711841084
50
99.23257899
51
109.24172407
0
ARC
8
BLACK
10
158.5499999999999829
20
-50.9799999999999969
40
1.000003
50
90.00017189
51
180.00000000
0
ARC
8
BLACK
10
193.4001999999999839
20
-55.5597999999999956
40
0.9998000200040006
50
-0.01146145
51
90.01146145
0
LINE
8
BLACK
6
CONTINUOUS
10
175.4499999999999886
20
-54.5599999999999952
11
193.3999999999999773
21
-54.5599999999999952
0
ARC
8
BLACK
10
173.7699999999999818
20
-121.9799999999999898
40
1.000000000002
50
0.00000000
51
90.00011459
0
LINE
8
BLACK
6
CONTINUOUS
10
134.9510159999999814
20
-130.4809999999999945
11
152.5228740000000016
21
-130.4828739999999812
0
ARC
8
BLACK
10
209.3179999999999836
20
-131.3829999999999814
40
1.
50
-90.00000000
51
-0.00000000
0
ARC
8
BLACK
10
156.5499999999999829
20
-51.4799999999999969
40
0.9999969999999999
50
-90.00017189
51
-0.00000000
0
LINE
8
BLACK
6
CONTINUOUS
10
210.3199999999999932
20
-61.769999999999996
11
210.3179999999999836
21
-131.3829999999999814
0
ARC
8
BLACK
10
105.309899999999999
20
-59.1198999999999941
40
0.9999000050004999
50
-270.00573015
51
-179.99426985
0
LINE
8
BLACK
6
CONTINUOUS
10
137.8799999999999955
20
-53.9799949999999953
11
137.8799999999999955
21
-53.4799999999999969
0
ARC
8
BLACK
10
209.3201999999999998
20
-61.7697999999999965
40
0.9998000200040006
50
-0.01146145
51
90.01146145
0
ARC
8
BLACK
10
124.440100000000001
20
-55.9801000000000002
40
1.0001000049994999
50
90.00572901
51
179.99427099
0
LINE
8
BLACK
6
CONTINUOUS
10
154.5199999999999818
20
-108.269999999999996
11
156.3700000000000045
21
-108.269999999999996
0
LINE
8
BLACK
6
CONTINUOUS
10
123.4399999999999977
20
-57.1099999999999994
11
123.4399999999999977
21
-55.9799999999999969
0
LINE
8
BLACK
6
CONTINUOUS
10
158.3700000000000045
20
-120.9799999999999898
11
173.7699979999999869
21
-120.9799999999999898
0
ARC
8
BLACK
10
152.5228999999999928
20
-129.4829000000000008
40
0.9999740003380087
50
-90.00148973
51
0.00148973
0
LINE
8
BLACK
6
CONTINUOUS
10
194.3999999999999773
20
-55.5599999999999952
11
194.3999999999999773
21
-59.769999999999996
0
ARC
8
BLACK
10
102.3935999999999922
20
-137.852800000000002
40
1.0000580900132752
50
-159.99738151
51
-70.75975775
0
ARC
8
BLACK
10
175.7699999999999818
20
-124.6799999999999926
40
0.9999990000019999
50
-180.00005730
51
-90.00011459
0
ARC
8
BLACK
10
158.3700000000000045
20
-119.9799999999999898
40
1.
50
-180.00000000
51
-90.00000000
0
LINE
8
BLACK
6
CONTINUOUS
10
109.5840999999999923
20
-67.9141999999999939
11
109.5840999999999923
21
-66.872799999999998
0
LINE
8
BLACK
6
CONTINUOUS
10
110.2698999999999927
20
-66.1869999999999976
11
111.8700999999999937
21
-66.1869999999999976
0
LINE
8
BLACK
6
CONTINUOUS
10
111.8570999999999884
20
-68.5969999999999942
11
110.2698999999999927
21
-68.5999999999999943
0
LINE
8
BLACK
6
CONTINUOUS
10
112.2510999999999939
20
-66.5679999999999978
11
112.2479999999999905
21
-68.215999999999994
0
LINE
8
BLACK
6
CONTINUOUS
10
112.7560000000000002
20
-62.1961999999999975
11
112.7560000000000002
21
-60.5197999999999965
0
LINE
8
BLACK
6
CONTINUOUS
10
113.4418000000000006
20
-59.8339999999999961
11
115.1182000000000016
21
-59.8339999999999961
0
LINE
8
BLACK
6
CONTINUOUS
10
113.4418000000000006
20
-62.8819999999999979
11
115.1182000000000016
21
-62.8819999999999979
0
LINE
8
BLACK
6
CONTINUOUS
10
115.8039999999999878
20
-62.1961999999999975
11
115.8039999999999878
21
-60.5197999999999965
0
LINE
8
BLACK
6
CONTINUOUS
10
117.7234209999999877
20
-77.6142809999999912
11
117.7189999999999941
21
-75.4100059999999957
0
LINE
8
BLACK
6
CONTINUOUS
10
118.0999999999999943
20
-75.0290059999999954
11
119.9799989999999923
21
-75.0290009999999938
0
LINE
8
BLACK
6
CONTINUOUS
10
119.5190959999999905
20
-78.0063619999999958
11
118.5906930000000017
21
-77.9895750000000021
0
LINE
8
BLACK
6
CONTINUOUS
10
120.3609989999999925
20
-75.4100009999999941
11
120.3560519999999912
21
-77.6076169999999905
0
ARC
8
BLACK
10
109.8318529999999953
20
-68.3522469999999913
40
0.5032561208947189
50
-29.49186786
51
119.49186786
0
ARC
8
BLACK
10
109.8318529999999953
20
-66.4347530000000006
40
0.5032561208947189
50
-119.49186786
51
29.49186786
0
ARC
8
BLACK
10
111.8701009999999911
20
-66.5679990000000004
40
0.3809990000013123
50
-0.00015038
51
90.00015038
0
ARC
8
BLACK
10
111.8670010000000019
20
-68.2160009999999914
40
0.3809990000013123
50
-90.00015038
51
0.00015038
0
ARC
8
BLACK
10
113.003752999999989
20
-62.6342469999999949
40
0.5032561208947189
50
-29.49186786
51
119.49186786
0
ARC
8
BLACK
10
113.003752999999989
20
-60.0817529999999991
40
0.5032561208947189
50
-119.49186786
51
29.49186786
0
ARC
8
BLACK
10
115.556246999999999
20
-62.6342469999999949
40
0.5032561208947189
50
-299.49186786
51
-150.50813214
0
ARC
8
BLACK
10
115.5562499999999915
20
-60.0817499999999995
40
0.5032572552879888
50
-209.49140242
51
-60.50859758
0
ARC
8
BLACK
10
118.0999999999999943
20
-75.4099999999999966
40
0.381000000047244
50
-270.00000000
51
-179.99909770
0
ARC
8
BLACK
10
118.0799999999999983
20
-77.9799999999999898
40
0.5107827035070784
50
-1.07411462
51
134.27501464
0
ARC
8
BLACK
10
120.019999999999996
20
-77.9799999999999898
40
0.5015972211446151
50
-312.06424589
51
-176.98736859
0
ARC
8
BLACK
10
119.9799999999999898
20
-75.4099999999999966
40
0.3809990000013123
50
-0.00015038
51
90.00015038
  0
ENDSEC
  0
EOF
