  0
SECTION
  2
HEADER
  9
$ANGBASE
  50
0.0
  9
$ANGDIR
  70
1
  9
$MEASUREMENT
  70
1
  0
ENDSEC
  0
SECTION
  2
TABLES
  0
TABLE
  2
LTYPE
  70
4
  0
LTYPE
  5
40F
  2
CONTINUOUS
  70
0
  3
Solid line
  72
65
  73
0
  40
0.0
  0
LTYPE
  5
410
  2
DASHDOT
 70
0
  3
Dash Dot ____ _ ____ _
 72
65
 73
4
 40
2.0
 49
1.25
 49
-0.25
 49
0.25
 49
-0.25
  0
LTYPE
  5
411
  2
DASHED
 70
0
  3
Dashed __ __ __ __ __
 72
65
 73
2
 40
0.75
 49
0.5
 49
-0.25
  0
LTYPE
  5
43B
  2
DOTTED
 70
0
  3
Dotted .  .  .  .
 72
65
 73
2
 40
0.2
 49
0.0
 49
-0.2
  0
ENDTAB
  0
TABLE
  2
STYLE
  70
4
  0
STYLE
  2
KICAD
  70
0
  40
0
  41
1
  42
1
  50
0
  71
0
  3
isocp.shx
  0
STYLE
  2
KICADB
  70
0
  40
0
  41
1
  42
1
  50
0
  71
0
  3
isocp.shx
  0
STYLE
  2
KICADI
  70
0
  40
0
  41
1
  42
1
  50
15
  71
0
  3
isocp.shx
  0
STYLE
  2
KICADBI
  70
0
  40
0
  41
1
  42
1
  50
15
  71
0
  3
isocp.shx
  0
ENDTAB
  0
TABLE
  2
LAYER
  70
1
  0
LAYER
  2
BLACK
  70
0
  62
7
  6
CONTINUOUS
  0
ENDTAB
  0
ENDSEC
  0
SECTION
  2
ENTITIES
0
LINE
8
BLACK
6
CONTINUOUS
10
175.7999999999999829
20
-94.325499999999991
11
175.7999999999999829
21
-95.325499999999991
0
LINE
8
BLACK
6
CONTINUOUS
10
175.7999999999999829
20
-107.325499999999991
11
175.7999999999999829
21
-108.325499999999991
0
LINE
8
BLACK
6
CONTINUOUS
10
175.7999999999999829
20
-108.325499999999991
11
176.7999999999999829
21
-108.325499999999991
0
LINE
8
BLACK
6
CONTINUOUS
10
176.7999999999999829
20
-94.325499999999991
11
175.7999999999999829
21
-94.325499999999991
0
LINE
8
BLACK
6
CONTINUOUS
10
188.7999999999999829
20
-94.325499999999991
11
189.7999999999999829
21
-94.325499999999991
0
LINE
8
BLACK
6
CONTINUOUS
10
189.7999999999999829
20
-94.325499999999991
11
189.7999999999999829
21
-95.325499999999991
0
LINE
8
BLACK
6
CONTINUOUS
10
189.7999999999999829
20
-107.325499999999991
11
189.7999999999999829
21
-108.325499999999991
0
LINE
8
BLACK
6
CONTINUOUS
10
189.7999999999999829
20
-108.325499999999991
11
188.7999999999999829
21
-108.325499999999991
0
LINE
8
BLACK
6
CONTINUOUS
10
191.3274999999999864
20
-109.8529999999999944
11
174.2775000000000034
21
-109.8529999999999944
0
LINE
8
BLACK
6
CONTINUOUS
10
174.2775000000000034
20
-109.8529999999999944
11
174.2775000000000034
21
-92.8029999999999973
0
LINE
8
BLACK
6
CONTINUOUS
10
174.2775000000000034
20
-92.8029999999999973
11
191.3274999999999864
21
-92.8029999999999973
0
LINE
8
BLACK
6
CONTINUOUS
10
191.3274999999999864
20
-92.8029999999999973
11
191.3274999999999864
21
-109.8529999999999944
0
LINE
8
BLACK
6
CONTINUOUS
10
198.1880109999999888
20
-134.5237070000000017
11
199.1277029999999968
21
-134.8657269999999926
0
LINE
8
BLACK
6
CONTINUOUS
10
198.5300309999999797
20
-133.5840149999999937
11
198.1880109999999888
21
-134.5237070000000017
0
LINE
8
BLACK
6
CONTINUOUS
10
202.9762929999999983
20
-121.3680109999999956
11
202.634272999999979
21
-122.3077029999999894
0
LINE
8
BLACK
6
CONTINUOUS
10
203.9159849999999778
20
-121.7100310000000007
11
202.9762929999999983
21
-121.3680109999999956
0
LINE
8
BLACK
6
CONTINUOUS
10
211.3437069999999949
20
-139.3119889999999828
11
210.4040149999999869
21
-138.9699689999999919
0
LINE
8
BLACK
6
CONTINUOUS
10
211.6857269999999858
20
-138.3722970000000032
11
211.3437069999999949
21
-139.3119889999999828
0
LINE
8
BLACK
6
CONTINUOUS
10
215.1922969999999964
20
-125.814273
11
216.1319890000000044
21
-126.1562929999999909
0
LINE
8
BLACK
6
CONTINUOUS
10
216.1319890000000044
20
-126.1562929999999909
11
215.789968999999985
21
-127.0959849999999989
0
LINE
8
BLACK
6
CONTINUOUS
10
218.0880949999999814
20
-125.248045999999988
11
212.2566520000000025
21
-141.2698059999999884
0
LINE
8
BLACK
6
CONTINUOUS
10
212.2566520000000025
20
-141.2698059999999884
11
196.2348929999999996
21
-135.4383619999999837
0
LINE
8
BLACK
6
CONTINUOUS
10
196.2348929999999996
20
-135.4383619999999837
11
202.0663370000000043
21
-119.4166029999999949
0
LINE
8
BLACK
6
CONTINUOUS
10
202.0663370000000043
20
-119.4166029999999949
11
218.0880949999999814
21
-125.248045999999988
0
LINE
8
BLACK
6
CONTINUOUS
10
107.5999999999999943
20
-83.9749999999999943
11
107.5999999999999943
21
-84.9749999999999943
0
LINE
8
BLACK
6
CONTINUOUS
10
107.5999999999999943
20
-96.9749999999999943
11
107.5999999999999943
21
-97.9749999999999943
0
LINE
8
BLACK
6
CONTINUOUS
10
107.5999999999999943
20
-97.9749999999999943
11
108.5999999999999943
21
-97.9749999999999943
0
LINE
8
BLACK
6
CONTINUOUS
10
108.5999999999999943
20
-83.9749999999999943
11
107.5999999999999943
21
-83.9749999999999943
0
LINE
8
BLACK
6
CONTINUOUS
10
120.5999999999999943
20
-83.9749999999999943
11
121.5999999999999943
21
-83.9749999999999943
0
LINE
8
BLACK
6
CONTINUOUS
10
121.5999999999999943
20
-83.9749999999999943
11
121.5999999999999943
21
-84.9749999999999943
0
LINE
8
BLACK
6
CONTINUOUS
10
121.5999999999999943
20
-96.9749999999999943
11
121.5999999999999943
21
-97.9749999999999943
0
LINE
8
BLACK
6
CONTINUOUS
10
121.5999999999999943
20
-97.9749999999999943
11
120.5999999999999943
21
-97.9749999999999943
0
LINE
8
BLACK
6
CONTINUOUS
10
123.1274999999999977
20
-99.5024999999999977
11
106.0775000000000006
21
-99.5024999999999977
0
LINE
8
BLACK
6
CONTINUOUS
10
106.0775000000000006
20
-99.5024999999999977
11
106.0775000000000006
21
-82.4525000000000006
0
LINE
8
BLACK
6
CONTINUOUS
10
106.0775000000000006
20
-82.4525000000000006
11
123.1274999999999977
21
-82.4525000000000006
0
LINE
8
BLACK
6
CONTINUOUS
10
123.1274999999999977
20
-82.4525000000000006
11
123.1274999999999977
21
-99.5024999999999977
0
LINE
8
BLACK
6
CONTINUOUS
10
175.7999999999999829
20
-60.2254999999999967
11
175.7999999999999829
21
-61.2254999999999967
0
LINE
8
BLACK
6
CONTINUOUS
10
175.7999999999999829
20
-73.2254999999999967
11
175.7999999999999829
21
-74.2254999999999967
0
LINE
8
BLACK
6
CONTINUOUS
10
175.7999999999999829
20
-74.2254999999999967
11
176.7999999999999829
21
-74.2254999999999967
0
LINE
8
BLACK
6
CONTINUOUS
10
176.7999999999999829
20
-60.2254999999999967
11
175.7999999999999829
21
-60.2254999999999967
0
LINE
8
BLACK
6
CONTINUOUS
10
188.7999999999999829
20
-60.2254999999999967
11
189.7999999999999829
21
-60.2254999999999967
0
LINE
8
BLACK
6
CONTINUOUS
10
189.7999999999999829
20
-60.2254999999999967
11
189.7999999999999829
21
-61.2254999999999967
0
LINE
8
BLACK
6
CONTINUOUS
10
189.7999999999999829
20
-73.2254999999999967
11
189.7999999999999829
21
-74.2254999999999967
0
LINE
8
BLACK
6
CONTINUOUS
10
189.7999999999999829
20
-74.2254999999999967
11
188.7999999999999829
21
-74.2254999999999967
0
LINE
8
BLACK
6
CONTINUOUS
10
191.3274999999999864
20
-75.7530000000000001
11
174.2775000000000034
21
-75.7530000000000001
0
LINE
8
BLACK
6
CONTINUOUS
10
174.2775000000000034
20
-75.7530000000000001
11
174.2775000000000034
21
-58.7029999999999959
0
LINE
8
BLACK
6
CONTINUOUS
10
174.2775000000000034
20
-58.7029999999999959
11
191.3274999999999864
21
-58.7029999999999959
0
LINE
8
BLACK
6
CONTINUOUS
10
191.3274999999999864
20
-58.7029999999999959
11
191.3274999999999864
21
-75.7530000000000001
0
LINE
8
BLACK
6
CONTINUOUS
10
208.9249999999999829
20
-105.3699999999999903
11
212.4249999999999829
21
-105.3699999999999903
0
LINE
8
BLACK
6
CONTINUOUS
10
208.9249999999999829
20
-114.3699999999999903
11
208.9249999999999829
21
-105.3699999999999903
0
LINE
8
BLACK
6
CONTINUOUS
10
212.4249999999999829
20
-105.3699999999999903
11
212.4249999999999829
21
-114.3699999999999903
0
LINE
8
BLACK
6
CONTINUOUS
10
212.4249999999999829
20
-114.3699999999999903
11
208.9249999999999829
21
-114.3699999999999903
0
LINE
8
BLACK
6
CONTINUOUS
10
141.6999999999999886
20
-72.2749999999999915
11
141.6999999999999886
21
-73.2749999999999915
0
LINE
8
BLACK
6
CONTINUOUS
10
141.6999999999999886
20
-85.2749999999999915
11
141.6999999999999886
21
-86.2749999999999915
0
LINE
8
BLACK
6
CONTINUOUS
10
141.6999999999999886
20
-86.2749999999999915
11
142.6999999999999886
21
-86.2749999999999915
0
LINE
8
BLACK
6
CONTINUOUS
10
142.6999999999999886
20
-72.2749999999999915
11
141.6999999999999886
21
-72.2749999999999915
0
LINE
8
BLACK
6
CONTINUOUS
10
154.6999999999999886
20
-72.2749999999999915
11
155.6999999999999886
21
-72.2749999999999915
0
LINE
8
BLACK
6
CONTINUOUS
10
155.6999999999999886
20
-72.2749999999999915
11
155.6999999999999886
21
-73.2749999999999915
0
LINE
8
BLACK
6
CONTINUOUS
10
155.6999999999999886
20
-85.2749999999999915
11
155.6999999999999886
21
-86.2749999999999915
0
LINE
8
BLACK
6
CONTINUOUS
10
155.6999999999999886
20
-86.2749999999999915
11
154.6999999999999886
21
-86.2749999999999915
0
LINE
8
BLACK
6
CONTINUOUS
10
157.227499999999992
20
-87.8024999999999949
11
140.1774999999999807
21
-87.8024999999999949
0
LINE
8
BLACK
6
CONTINUOUS
10
140.1774999999999807
20
-87.8024999999999949
11
140.1774999999999807
21
-70.7524999999999977
0
LINE
8
BLACK
6
CONTINUOUS
10
140.1774999999999807
20
-70.7524999999999977
11
157.227499999999992
21
-70.7524999999999977
0
LINE
8
BLACK
6
CONTINUOUS
10
157.227499999999992
20
-70.7524999999999977
11
157.227499999999992
21
-87.8024999999999949
0
LINE
8
BLACK
6
CONTINUOUS
10
107.5999999999999943
20
-101.0249999999999915
11
107.5999999999999943
21
-102.0249999999999915
0
LINE
8
BLACK
6
CONTINUOUS
10
107.5999999999999943
20
-114.0249999999999915
11
107.5999999999999943
21
-115.0249999999999915
0
LINE
8
BLACK
6
CONTINUOUS
10
107.5999999999999943
20
-115.0249999999999915
11
108.5999999999999943
21
-115.0249999999999915
0
LINE
8
BLACK
6
CONTINUOUS
10
108.5999999999999943
20
-101.0249999999999915
11
107.5999999999999943
21
-101.0249999999999915
0
LINE
8
BLACK
6
CONTINUOUS
10
120.5999999999999943
20
-101.0249999999999915
11
121.5999999999999943
21
-101.0249999999999915
0
LINE
8
BLACK
6
CONTINUOUS
10
121.5999999999999943
20
-101.0249999999999915
11
121.5999999999999943
21
-102.0249999999999915
0
LINE
8
BLACK
6
CONTINUOUS
10
121.5999999999999943
20
-114.0249999999999915
11
121.5999999999999943
21
-115.0249999999999915
0
LINE
8
BLACK
6
CONTINUOUS
10
121.5999999999999943
20
-115.0249999999999915
11
120.5999999999999943
21
-115.0249999999999915
0
LINE
8
BLACK
6
CONTINUOUS
10
123.1274999999999977
20
-116.5524999999999949
11
106.0775000000000006
21
-116.5524999999999949
0
LINE
8
BLACK
6
CONTINUOUS
10
106.0775000000000006
20
-116.5524999999999949
11
106.0775000000000006
21
-99.5024999999999977
0
LINE
8
BLACK
6
CONTINUOUS
10
106.0775000000000006
20
-99.5024999999999977
11
123.1274999999999977
21
-99.5024999999999977
0
LINE
8
BLACK
6
CONTINUOUS
10
123.1274999999999977
20
-99.5024999999999977
11
123.1274999999999977
21
-116.5524999999999949
0
LINE
8
BLACK
6
CONTINUOUS
10
124.6499999999999915
20
-94.0254999999999939
11
124.6499999999999915
21
-95.0254999999999939
0
LINE
8
BLACK
6
CONTINUOUS
10
124.6499999999999915
20
-107.0254999999999939
11
124.6499999999999915
21
-108.0254999999999939
0
LINE
8
BLACK
6
CONTINUOUS
10
124.6499999999999915
20
-108.0254999999999939
11
125.6499999999999915
21
-108.0254999999999939
0
LINE
8
BLACK
6
CONTINUOUS
10
125.6499999999999915
20
-94.0254999999999939
11
124.6499999999999915
21
-94.0254999999999939
0
LINE
8
BLACK
6
CONTINUOUS
10
137.6500000000000057
20
-94.0254999999999939
11
138.6500000000000057
21
-94.0254999999999939
0
LINE
8
BLACK
6
CONTINUOUS
10
138.6500000000000057
20
-94.0254999999999939
11
138.6500000000000057
21
-95.0254999999999939
0
LINE
8
BLACK
6
CONTINUOUS
10
138.6500000000000057
20
-107.0254999999999939
11
138.6500000000000057
21
-108.0254999999999939
0
LINE
8
BLACK
6
CONTINUOUS
10
138.6500000000000057
20
-108.0254999999999939
11
137.6500000000000057
21
-108.0254999999999939
0
LINE
8
BLACK
6
CONTINUOUS
10
140.1774999999999807
20
-109.5529999999999973
11
123.1274999999999977
21
-109.5529999999999973
0
LINE
8
BLACK
6
CONTINUOUS
10
123.1274999999999977
20
-109.5529999999999973
11
123.1274999999999977
21
-92.5030000000000001
0
LINE
8
BLACK
6
CONTINUOUS
10
123.1274999999999977
20
-92.5030000000000001
11
140.1774999999999807
21
-92.5030000000000001
0
LINE
8
BLACK
6
CONTINUOUS
10
140.1774999999999807
20
-92.5030000000000001
11
140.1774999999999807
21
-109.5529999999999973
0
LINE
8
BLACK
6
CONTINUOUS
10
124.6499999999999915
20
-76.9754999999999967
11
124.6499999999999915
21
-77.9754999999999967
0
LINE
8
BLACK
6
CONTINUOUS
10
124.6499999999999915
20
-89.9754999999999967
11
124.6499999999999915
21
-90.9754999999999967
0
LINE
8
BLACK
6
CONTINUOUS
10
124.6499999999999915
20
-90.9754999999999967
11
125.6499999999999915
21
-90.9754999999999967
0
LINE
8
BLACK
6
CONTINUOUS
10
125.6499999999999915
20
-76.9754999999999967
11
124.6499999999999915
21
-76.9754999999999967
0
LINE
8
BLACK
6
CONTINUOUS
10
137.6500000000000057
20
-76.9754999999999967
11
138.6500000000000057
21
-76.9754999999999967
0
LINE
8
BLACK
6
CONTINUOUS
10
138.6500000000000057
20
-76.9754999999999967
11
138.6500000000000057
21
-77.9754999999999967
0
LINE
8
BLACK
6
CONTINUOUS
10
138.6500000000000057
20
-89.9754999999999967
11
138.6500000000000057
21
-90.9754999999999967
0
LINE
8
BLACK
6
CONTINUOUS
10
138.6500000000000057
20
-90.9754999999999967
11
137.6500000000000057
21
-90.9754999999999967
0
LINE
8
BLACK
6
CONTINUOUS
10
140.1774999999999807
20
-92.5030000000000001
11
123.1274999999999977
21
-92.5030000000000001
0
LINE
8
BLACK
6
CONTINUOUS
10
123.1274999999999977
20
-92.5030000000000001
11
123.1274999999999977
21
-75.453000000000003
0
LINE
8
BLACK
6
CONTINUOUS
10
123.1274999999999977
20
-75.453000000000003
11
140.1774999999999807
21
-75.453000000000003
0
LINE
8
BLACK
6
CONTINUOUS
10
140.1774999999999807
20
-75.453000000000003
11
140.1774999999999807
21
-92.5030000000000001
0
LINE
8
BLACK
6
CONTINUOUS
10
158.75
20
-57.7251999999999938
11
158.75
21
-58.7251999999999938
0
LINE
8
BLACK
6
CONTINUOUS
10
158.75
20
-70.725200000000001
11
158.75
21
-71.725200000000001
0
LINE
8
BLACK
6
CONTINUOUS
10
158.75
20
-71.725200000000001
11
159.75
21
-71.725200000000001
0
LINE
8
BLACK
6
CONTINUOUS
10
159.75
20
-57.7251999999999938
11
158.75
21
-57.7251999999999938
0
LINE
8
BLACK
6
CONTINUOUS
10
171.75
20
-57.7251999999999938
11
172.75
21
-57.7251999999999938
0
LINE
8
BLACK
6
CONTINUOUS
10
172.75
20
-57.7251999999999938
11
172.75
21
-58.7251999999999938
0
LINE
8
BLACK
6
CONTINUOUS
10
172.75
20
-70.725200000000001
11
172.75
21
-71.725200000000001
0
LINE
8
BLACK
6
CONTINUOUS
10
172.75
20
-71.725200000000001
11
171.75
21
-71.725200000000001
0
LINE
8
BLACK
6
CONTINUOUS
10
174.2775000000000034
20
-73.2526999999999902
11
157.227499999999992
21
-73.2526999999999902
0
LINE
8
BLACK
6
CONTINUOUS
10
157.227499999999992
20
-73.2526999999999902
11
157.227499999999992
21
-56.2027000000000001
0
LINE
8
BLACK
6
CONTINUOUS
10
157.227499999999992
20
-56.2027000000000001
11
174.2775000000000034
21
-56.2027000000000001
0
LINE
8
BLACK
6
CONTINUOUS
10
174.2775000000000034
20
-56.2027000000000001
11
174.2775000000000034
21
-73.2526999999999902
0
LINE
8
BLACK
6
CONTINUOUS
10
179.2608079999999973
20
-130.648116999999985
11
180.2456159999999841
21
-130.8217649999999992
0
LINE
8
BLACK
6
CONTINUOUS
10
179.4344569999999806
20
-129.6633089999999982
11
179.2608079999999973
21
-130.648116999999985
0
LINE
8
BLACK
6
CONTINUOUS
10
181.69188299999999
20
-116.8608079999999916
11
181.5182350000000042
21
-117.8456159999999926
0
LINE
8
BLACK
6
CONTINUOUS
10
182.6766910000000053
20
-117.0344569999999891
11
181.69188299999999
21
-116.8608079999999916
0
LINE
8
BLACK
6
CONTINUOUS
10
193.0481169999999906
20
-133.0791920000000061
11
192.0633090000000038
21
-132.9055429999999944
0
LINE
8
BLACK
6
CONTINUOUS
10
193.2217650000000049
20
-132.0943839999999909
11
193.0481169999999906
21
-133.0791920000000061
0
LINE
8
BLACK
6
CONTINUOUS
10
194.4943839999999966
20
-119.1182349999999985
11
195.4791919999999834
21
-119.2918829999999986
0
LINE
8
BLACK
6
CONTINUOUS
10
195.4791919999999834
20
-119.2918829999999986
11
195.3055430000000001
21
-120.2766909999999996
0
LINE
8
BLACK
6
CONTINUOUS
10
197.2478649999999902
20
-118.0577609999999993
11
194.2871629999999925
21
-134.8487329999999815
0
LINE
8
BLACK
6
CONTINUOUS
10
194.2871629999999925
20
-134.8487329999999815
11
177.4961909999999818
21
-131.8880319999999813
0
LINE
8
BLACK
6
CONTINUOUS
10
177.4961909999999818
20
-131.8880319999999813
11
180.4568929999999796
21
-115.0970590000000016
0
LINE
8
BLACK
6
CONTINUOUS
10
180.4568929999999796
20
-115.0970590000000016
11
197.2478649999999902
21
-118.0577609999999993
0
LINE
8
BLACK
6
CONTINUOUS
10
124.6499999999999915
20
-59.9254999999999995
11
124.6499999999999915
21
-60.9254999999999995
0
LINE
8
BLACK
6
CONTINUOUS
10
124.6499999999999915
20
-72.9254999999999995
11
124.6499999999999915
21
-73.9254999999999995
0
LINE
8
BLACK
6
CONTINUOUS
10
124.6499999999999915
20
-73.9254999999999995
11
125.6499999999999915
21
-73.9254999999999995
0
LINE
8
BLACK
6
CONTINUOUS
10
125.6499999999999915
20
-59.9254999999999995
11
124.6499999999999915
21
-59.9254999999999995
0
LINE
8
BLACK
6
CONTINUOUS
10
137.6500000000000057
20
-59.9254999999999995
11
138.6500000000000057
21
-59.9254999999999995
0
LINE
8
BLACK
6
CONTINUOUS
10
138.6500000000000057
20
-59.9254999999999995
11
138.6500000000000057
21
-60.9254999999999995
0
LINE
8
BLACK
6
CONTINUOUS
10
138.6500000000000057
20
-72.9254999999999995
11
138.6500000000000057
21
-73.9254999999999995
0
LINE
8
BLACK
6
CONTINUOUS
10
138.6500000000000057
20
-73.9254999999999995
11
137.6500000000000057
21
-73.9254999999999995
0
LINE
8
BLACK
6
CONTINUOUS
10
140.1774999999999807
20
-75.453000000000003
11
123.1274999999999977
21
-75.453000000000003
0
LINE
8
BLACK
6
CONTINUOUS
10
123.1274999999999977
20
-75.453000000000003
11
123.1274999999999977
21
-58.4029999999999987
0
LINE
8
BLACK
6
CONTINUOUS
10
123.1274999999999977
20
-58.4029999999999987
11
140.1774999999999807
21
-58.4029999999999987
0
LINE
8
BLACK
6
CONTINUOUS
10
140.1774999999999807
20
-58.4029999999999987
11
140.1774999999999807
21
-75.453000000000003
0
LINE
8
BLACK
6
CONTINUOUS
10
107.5999999999999943
20
-118.0749999999999886
11
107.5999999999999943
21
-119.0749999999999886
0
LINE
8
BLACK
6
CONTINUOUS
10
107.5999999999999943
20
-131.0749999999999886
11
107.5999999999999943
21
-132.0749999999999886
0
LINE
8
BLACK
6
CONTINUOUS
10
107.5999999999999943
20
-132.0749999999999886
11
108.5999999999999943
21
-132.0749999999999886
0
LINE
8
BLACK
6
CONTINUOUS
10
108.5999999999999943
20
-118.0749999999999886
11
107.5999999999999943
21
-118.0749999999999886
0
LINE
8
BLACK
6
CONTINUOUS
10
120.5999999999999943
20
-118.0749999999999886
11
121.5999999999999943
21
-118.0749999999999886
0
LINE
8
BLACK
6
CONTINUOUS
10
121.5999999999999943
20
-118.0749999999999886
11
121.5999999999999943
21
-119.0749999999999886
0
LINE
8
BLACK
6
CONTINUOUS
10
121.5999999999999943
20
-131.0749999999999886
11
121.5999999999999943
21
-132.0749999999999886
0
LINE
8
BLACK
6
CONTINUOUS
10
121.5999999999999943
20
-132.0749999999999886
11
120.5999999999999943
21
-132.0749999999999886
0
LINE
8
BLACK
6
CONTINUOUS
10
123.1274999999999977
20
-133.602499999999992
11
106.0775000000000006
21
-133.602499999999992
0
LINE
8
BLACK
6
CONTINUOUS
10
106.0775000000000006
20
-133.602499999999992
11
106.0775000000000006
21
-116.5524999999999949
0
LINE
8
BLACK
6
CONTINUOUS
10
106.0775000000000006
20
-116.5524999999999949
11
123.1274999999999977
21
-116.5524999999999949
0
LINE
8
BLACK
6
CONTINUOUS
10
123.1274999999999977
20
-116.5524999999999949
11
123.1274999999999977
21
-133.602499999999992
0
LINE
8
BLACK
6
CONTINUOUS
10
158.75
20
-91.8251999999999953
11
158.75
21
-92.8251999999999953
0
LINE
8
BLACK
6
CONTINUOUS
10
158.75
20
-104.8251999999999953
11
158.75
21
-105.8251999999999953
0
LINE
8
BLACK
6
CONTINUOUS
10
158.75
20
-105.8251999999999953
11
159.75
21
-105.8251999999999953
0
LINE
8
BLACK
6
CONTINUOUS
10
159.75
20
-91.8251999999999953
11
158.75
21
-91.8251999999999953
0
LINE
8
BLACK
6
CONTINUOUS
10
171.75
20
-91.8251999999999953
11
172.75
21
-91.8251999999999953
0
LINE
8
BLACK
6
CONTINUOUS
10
172.75
20
-91.8251999999999953
11
172.75
21
-92.8251999999999953
0
LINE
8
BLACK
6
CONTINUOUS
10
172.75
20
-104.8251999999999953
11
172.75
21
-105.8251999999999953
0
LINE
8
BLACK
6
CONTINUOUS
10
172.75
20
-105.8251999999999953
11
171.75
21
-105.8251999999999953
0
LINE
8
BLACK
6
CONTINUOUS
10
174.2775000000000034
20
-107.3526999999999987
11
157.227499999999992
21
-107.3526999999999987
0
LINE
8
BLACK
6
CONTINUOUS
10
157.227499999999992
20
-107.3526999999999987
11
157.227499999999992
21
-90.3027000000000015
0
LINE
8
BLACK
6
CONTINUOUS
10
157.227499999999992
20
-90.3027000000000015
11
174.2775000000000034
21
-90.3027000000000015
0
LINE
8
BLACK
6
CONTINUOUS
10
174.2775000000000034
20
-90.3027000000000015
11
174.2775000000000034
21
-107.3526999999999987
0
LINE
8
BLACK
6
CONTINUOUS
10
141.6999999999999886
20
-89.3250000000000028
11
141.6999999999999886
21
-90.3250000000000028
0
LINE
8
BLACK
6
CONTINUOUS
10
141.6999999999999886
20
-102.3249999999999886
11
141.6999999999999886
21
-103.3249999999999886
0
LINE
8
BLACK
6
CONTINUOUS
10
141.6999999999999886
20
-103.3249999999999886
11
142.6999999999999886
21
-103.3249999999999886
0
LINE
8
BLACK
6
CONTINUOUS
10
142.6999999999999886
20
-89.3250000000000028
11
141.6999999999999886
21
-89.3250000000000028
0
LINE
8
BLACK
6
CONTINUOUS
10
154.6999999999999886
20
-89.3250000000000028
11
155.6999999999999886
21
-89.3250000000000028
0
LINE
8
BLACK
6
CONTINUOUS
10
155.6999999999999886
20
-89.3250000000000028
11
155.6999999999999886
21
-90.3250000000000028
0
LINE
8
BLACK
6
CONTINUOUS
10
155.6999999999999886
20
-102.3249999999999886
11
155.6999999999999886
21
-103.3249999999999886
0
LINE
8
BLACK
6
CONTINUOUS
10
155.6999999999999886
20
-103.3249999999999886
11
154.6999999999999886
21
-103.3249999999999886
0
LINE
8
BLACK
6
CONTINUOUS
10
157.227499999999992
20
-104.852499999999992
11
140.1774999999999807
21
-104.852499999999992
0
LINE
8
BLACK
6
CONTINUOUS
10
140.1774999999999807
20
-104.852499999999992
11
140.1774999999999807
21
-87.8024999999999949
0
LINE
8
BLACK
6
CONTINUOUS
10
140.1774999999999807
20
-87.8024999999999949
11
157.227499999999992
21
-87.8024999999999949
0
LINE
8
BLACK
6
CONTINUOUS
10
157.227499999999992
20
-87.8024999999999949
11
157.227499999999992
21
-104.852499999999992
0
LINE
8
BLACK
6
CONTINUOUS
10
107.5999999999999943
20
-66.9249999999999972
11
107.5999999999999943
21
-67.9249999999999972
0
LINE
8
BLACK
6
CONTINUOUS
10
107.5999999999999943
20
-79.9249999999999972
11
107.5999999999999943
21
-80.9249999999999972
0
LINE
8
BLACK
6
CONTINUOUS
10
107.5999999999999943
20
-80.9249999999999972
11
108.5999999999999943
21
-80.9249999999999972
0
LINE
8
BLACK
6
CONTINUOUS
10
108.5999999999999943
20
-66.9249999999999972
11
107.5999999999999943
21
-66.9249999999999972
0
LINE
8
BLACK
6
CONTINUOUS
10
120.5999999999999943
20
-66.9249999999999972
11
121.5999999999999943
21
-66.9249999999999972
0
LINE
8
BLACK
6
CONTINUOUS
10
121.5999999999999943
20
-66.9249999999999972
11
121.5999999999999943
21
-67.9249999999999972
0
LINE
8
BLACK
6
CONTINUOUS
10
121.5999999999999943
20
-79.9249999999999972
11
121.5999999999999943
21
-80.9249999999999972
0
LINE
8
BLACK
6
CONTINUOUS
10
121.5999999999999943
20
-80.9249999999999972
11
120.5999999999999943
21
-80.9249999999999972
0
LINE
8
BLACK
6
CONTINUOUS
10
123.1274999999999977
20
-82.4525000000000006
11
106.0775000000000006
21
-82.4525000000000006
0
LINE
8
BLACK
6
CONTINUOUS
10
106.0775000000000006
20
-82.4525000000000006
11
106.0775000000000006
21
-65.4025000000000034
0
LINE
8
BLACK
6
CONTINUOUS
10
106.0775000000000006
20
-65.4025000000000034
11
123.1274999999999977
21
-65.4025000000000034
0
LINE
8
BLACK
6
CONTINUOUS
10
123.1274999999999977
20
-65.4025000000000034
11
123.1274999999999977
21
-82.4525000000000006
0
LINE
8
BLACK
6
CONTINUOUS
10
192.8499999999999943
20
-81.7999999999999972
11
192.8499999999999943
21
-82.7999999999999972
0
LINE
8
BLACK
6
CONTINUOUS
10
192.8499999999999943
20
-94.7999999999999972
11
192.8499999999999943
21
-95.7999999999999972
0
LINE
8
BLACK
6
CONTINUOUS
10
192.8499999999999943
20
-95.7999999999999972
11
193.8499999999999943
21
-95.7999999999999972
0
LINE
8
BLACK
6
CONTINUOUS
10
193.8499999999999943
20
-81.7999999999999972
11
192.8499999999999943
21
-81.7999999999999972
0
LINE
8
BLACK
6
CONTINUOUS
10
205.8499999999999943
20
-81.7999999999999972
11
206.8499999999999943
21
-81.7999999999999972
0
LINE
8
BLACK
6
CONTINUOUS
10
206.8499999999999943
20
-81.7999999999999972
11
206.8499999999999943
21
-82.7999999999999972
0
LINE
8
BLACK
6
CONTINUOUS
10
206.8499999999999943
20
-94.7999999999999972
11
206.8499999999999943
21
-95.7999999999999972
0
LINE
8
BLACK
6
CONTINUOUS
10
206.8499999999999943
20
-95.7999999999999972
11
205.8499999999999943
21
-95.7999999999999972
0
LINE
8
BLACK
6
CONTINUOUS
10
208.3774999999999977
20
-97.3275000000000006
11
191.3274999999999864
21
-97.3275000000000006
0
LINE
8
BLACK
6
CONTINUOUS
10
191.3274999999999864
20
-97.3275000000000006
11
191.3274999999999864
21
-80.2775000000000034
0
LINE
8
BLACK
6
CONTINUOUS
10
191.3274999999999864
20
-80.2775000000000034
11
208.3774999999999977
21
-80.2775000000000034
0
LINE
8
BLACK
6
CONTINUOUS
10
208.3774999999999977
20
-80.2775000000000034
11
208.3774999999999977
21
-97.3275000000000006
0
LINE
8
BLACK
6
CONTINUOUS
10
158.75
20
-74.7751999999999981
11
158.75
21
-75.7751999999999981
0
LINE
8
BLACK
6
CONTINUOUS
10
158.75
20
-87.7751999999999981
11
158.75
21
-88.7751999999999981
0
LINE
8
BLACK
6
CONTINUOUS
10
158.75
20
-88.7751999999999981
11
159.75
21
-88.7751999999999981
0
LINE
8
BLACK
6
CONTINUOUS
10
159.75
20
-74.7751999999999981
11
158.75
21
-74.7751999999999981
0
LINE
8
BLACK
6
CONTINUOUS
10
171.75
20
-74.7751999999999981
11
172.75
21
-74.7751999999999981
0
LINE
8
BLACK
6
CONTINUOUS
10
172.75
20
-74.7751999999999981
11
172.75
21
-75.7751999999999981
0
LINE
8
BLACK
6
CONTINUOUS
10
172.75
20
-87.7751999999999981
11
172.75
21
-88.7751999999999981
0
LINE
8
BLACK
6
CONTINUOUS
10
172.75
20
-88.7751999999999981
11
171.75
21
-88.7751999999999981
0
LINE
8
BLACK
6
CONTINUOUS
10
174.2775000000000034
20
-90.3027000000000015
11
157.227499999999992
21
-90.3027000000000015
0
LINE
8
BLACK
6
CONTINUOUS
10
157.227499999999992
20
-90.3027000000000015
11
157.227499999999992
21
-73.2526999999999902
0
LINE
8
BLACK
6
CONTINUOUS
10
157.227499999999992
20
-73.2526999999999902
11
174.2775000000000034
21
-73.2526999999999902
0
LINE
8
BLACK
6
CONTINUOUS
10
174.2775000000000034
20
-73.2526999999999902
11
174.2775000000000034
21
-90.3027000000000015
0
LINE
8
BLACK
6
CONTINUOUS
10
141.6999999999999886
20
-55.2249999999999943
11
141.6999999999999886
21
-56.2249999999999943
0
LINE
8
BLACK
6
CONTINUOUS
10
141.6999999999999886
20
-68.2249999999999943
11
141.6999999999999886
21
-69.2249999999999943
0
LINE
8
BLACK
6
CONTINUOUS
10
141.6999999999999886
20
-69.2249999999999943
11
142.6999999999999886
21
-69.2249999999999943
0
LINE
8
BLACK
6
CONTINUOUS
10
142.6999999999999886
20
-55.2249999999999943
11
141.6999999999999886
21
-55.2249999999999943
0
LINE
8
BLACK
6
CONTINUOUS
10
154.6999999999999886
20
-55.2249999999999943
11
155.6999999999999886
21
-55.2249999999999943
0
LINE
8
BLACK
6
CONTINUOUS
10
155.6999999999999886
20
-55.2249999999999943
11
155.6999999999999886
21
-56.2249999999999943
0
LINE
8
BLACK
6
CONTINUOUS
10
155.6999999999999886
20
-68.2249999999999943
11
155.6999999999999886
21
-69.2249999999999943
0
LINE
8
BLACK
6
CONTINUOUS
10
155.6999999999999886
20
-69.2249999999999943
11
154.6999999999999886
21
-69.2249999999999943
0
LINE
8
BLACK
6
CONTINUOUS
10
157.227499999999992
20
-70.7524999999999977
11
140.1774999999999807
21
-70.7524999999999977
0
LINE
8
BLACK
6
CONTINUOUS
10
140.1774999999999807
20
-70.7524999999999977
11
140.1774999999999807
21
-53.7025000000000006
0
LINE
8
BLACK
6
CONTINUOUS
10
140.1774999999999807
20
-53.7025000000000006
11
157.227499999999992
21
-53.7025000000000006
0
LINE
8
BLACK
6
CONTINUOUS
10
157.227499999999992
20
-53.7025000000000006
11
157.227499999999992
21
-70.7524999999999977
0
LINE
8
BLACK
6
CONTINUOUS
10
192.8499999999999943
20
-98.8499999999999943
11
192.8499999999999943
21
-99.8499999999999943
0
LINE
8
BLACK
6
CONTINUOUS
10
192.8499999999999943
20
-111.8499999999999943
11
192.8499999999999943
21
-112.8499999999999943
0
LINE
8
BLACK
6
CONTINUOUS
10
192.8499999999999943
20
-112.8499999999999943
11
193.8499999999999943
21
-112.8499999999999943
0
LINE
8
BLACK
6
CONTINUOUS
10
193.8499999999999943
20
-98.8499999999999943
11
192.8499999999999943
21
-98.8499999999999943
0
LINE
8
BLACK
6
CONTINUOUS
10
205.8499999999999943
20
-98.8499999999999943
11
206.8499999999999943
21
-98.8499999999999943
0
LINE
8
BLACK
6
CONTINUOUS
10
206.8499999999999943
20
-98.8499999999999943
11
206.8499999999999943
21
-99.8499999999999943
0
LINE
8
BLACK
6
CONTINUOUS
10
206.8499999999999943
20
-111.8499999999999943
11
206.8499999999999943
21
-112.8499999999999943
0
LINE
8
BLACK
6
CONTINUOUS
10
206.8499999999999943
20
-112.8499999999999943
11
205.8499999999999943
21
-112.8499999999999943
0
LINE
8
BLACK
6
CONTINUOUS
10
208.3774999999999977
20
-114.3774999999999977
11
191.3274999999999864
21
-114.3774999999999977
0
LINE
8
BLACK
6
CONTINUOUS
10
191.3274999999999864
20
-114.3774999999999977
11
191.3274999999999864
21
-97.3275000000000006
0
LINE
8
BLACK
6
CONTINUOUS
10
191.3274999999999864
20
-97.3275000000000006
11
208.3774999999999977
21
-97.3275000000000006
0
LINE
8
BLACK
6
CONTINUOUS
10
208.3774999999999977
20
-97.3275000000000006
11
208.3774999999999977
21
-114.3774999999999977
0
LINE
8
BLACK
6
CONTINUOUS
10
175.7999999999999829
20
-77.2754999999999939
11
175.7999999999999829
21
-78.2754999999999939
0
LINE
8
BLACK
6
CONTINUOUS
10
175.7999999999999829
20
-90.2754999999999939
11
175.7999999999999829
21
-91.2754999999999939
0
LINE
8
BLACK
6
CONTINUOUS
10
175.7999999999999829
20
-91.2754999999999939
11
176.7999999999999829
21
-91.2754999999999939
0
LINE
8
BLACK
6
CONTINUOUS
10
176.7999999999999829
20
-77.2754999999999939
11
175.7999999999999829
21
-77.2754999999999939
0
LINE
8
BLACK
6
CONTINUOUS
10
188.7999999999999829
20
-77.2754999999999939
11
189.7999999999999829
21
-77.2754999999999939
0
LINE
8
BLACK
6
CONTINUOUS
10
189.7999999999999829
20
-77.2754999999999939
11
189.7999999999999829
21
-78.2754999999999939
0
LINE
8
BLACK
6
CONTINUOUS
10
189.7999999999999829
20
-90.2754999999999939
11
189.7999999999999829
21
-91.2754999999999939
0
LINE
8
BLACK
6
CONTINUOUS
10
189.7999999999999829
20
-91.2754999999999939
11
188.7999999999999829
21
-91.2754999999999939
0
LINE
8
BLACK
6
CONTINUOUS
10
191.3274999999999864
20
-92.8029999999999973
11
174.2775000000000034
21
-92.8029999999999973
0
LINE
8
BLACK
6
CONTINUOUS
10
174.2775000000000034
20
-92.8029999999999973
11
174.2775000000000034
21
-75.7530000000000001
0
LINE
8
BLACK
6
CONTINUOUS
10
174.2775000000000034
20
-75.7530000000000001
11
191.3274999999999864
21
-75.7530000000000001
0
LINE
8
BLACK
6
CONTINUOUS
10
191.3274999999999864
20
-75.7530000000000001
11
191.3274999999999864
21
-92.8029999999999973
0
LINE
8
BLACK
6
CONTINUOUS
10
193.6200000000000045
20
-80.289999999999992
11
211.3999999999999773
21
-80.289999999999992
0
LINE
8
BLACK
6
CONTINUOUS
10
211.3999999999999773
20
-80.289999999999992
11
211.3999999999999773
21
-59.2899999999999991
0
LINE
8
BLACK
6
CONTINUOUS
10
211.3999999999999773
20
-59.2899999999999991
11
193.6200000000000045
21
-59.2899999999999991
0
LINE
8
BLACK
6
CONTINUOUS
10
193.6200000000000045
20
-59.2899999999999991
11
193.6200000000000045
21
-80.289999999999992
0
LINE
8
BLACK
6
CONTINUOUS
10
197.2241889999999955
20
-63.0041869999999946
11
199.0021889999999871
21
-63.0041869999999946
0
LINE
8
BLACK
6
CONTINUOUS
10
199.0021889999999871
20
-63.0041869999999946
11
199.0021889999999871
21
-65.6711870000000033
0
LINE
8
BLACK
6
CONTINUOUS
10
199.0021889999999871
20
-65.6711870000000033
11
197.2241889999999955
21
-65.6711870000000033
0
LINE
8
BLACK
6
CONTINUOUS
10
197.2241889999999955
20
-65.6711870000000033
11
197.2241889999999955
21
-63.0041869999999946
0
LINE
8
BLACK
6
CONTINUOUS
10
199.0021889999999871
20
-61.6071869999999961
11
197.2241889999999955
21
-61.6071869999999961
0
LINE
8
BLACK
6
CONTINUOUS
10
197.2241889999999955
20
-61.6071869999999961
11
197.2241889999999955
21
-58.9401869999999946
0
LINE
8
BLACK
6
CONTINUOUS
10
197.2241889999999955
20
-58.9401869999999946
11
199.0021889999999871
21
-58.9401869999999946
0
LINE
8
BLACK
6
CONTINUOUS
10
199.0021889999999871
20
-58.9401869999999946
11
199.0021889999999871
21
-61.6071869999999961
0
LINE
8
BLACK
6
CONTINUOUS
10
205.8601969999999994
20
-58.9401869999999946
11
207.638196999999991
21
-58.9401869999999946
0
LINE
8
BLACK
6
CONTINUOUS
10
207.638196999999991
20
-58.9401869999999946
11
207.638196999999991
21
-61.6071869999999961
0
LINE
8
BLACK
6
CONTINUOUS
10
207.638196999999991
20
-61.6071869999999961
11
205.8601969999999994
21
-61.6071869999999961
0
LINE
8
BLACK
6
CONTINUOUS
10
205.8601969999999994
20
-61.6071869999999961
11
205.8601969999999994
21
-58.9401869999999946
0
LINE
8
BLACK
6
CONTINUOUS
10
205.8601969999999994
20
-63.0041869999999946
11
207.638196999999991
21
-63.0041869999999946
0
LINE
8
BLACK
6
CONTINUOUS
10
207.638196999999991
20
-63.0041869999999946
11
207.638196999999991
21
-65.6711870000000033
0
LINE
8
BLACK
6
CONTINUOUS
10
207.638196999999991
20
-65.6711870000000033
11
205.8601969999999994
21
-65.6711870000000033
0
LINE
8
BLACK
6
CONTINUOUS
10
205.8601969999999994
20
-65.6711870000000033
11
205.8601969999999994
21
-63.0041869999999946
0
CIRCLE
8
BLACK
10
174.6999999999999886
20
-55.9799999999999969
40
2.4499999999999997
0
CIRCLE
8
BLACK
10
200.1299999999999955
20
-117.1499999999999915
40
2.4499999999999997
0
LINE
8
BLACK
6
CONTINUOUS
10
127.9499999999999886
20
-112.4799999999999898
11
131.5
21
-112.4799999999999898
0
LINE
8
BLACK
6
CONTINUOUS
10
127.9499999999999886
20
-131.2800000000000011
11
127.9499999999999886
21
-112.4799999999999898
0
LINE
8
BLACK
6
CONTINUOUS
10
131.5
20
-112.4799999999999898
11
131.5
21
-131.2800000000000011
0
LINE
8
BLACK
6
CONTINUOUS
10
131.5
20
-131.2800000000000011
11
127.9499999999999886
21
-131.2800000000000011
0
CIRCLE
8
BLACK
10
122.7099999999999937
20
-58.1899999999999977
40
2.4499999999999997
0
CIRCLE
8
BLACK
10
122.7999999999999972
20
-109.9299999999999926
40
2.4499999999999997
0
LINE
8
BLACK
6
CONTINUOUS
10
128.4300000000000068
20
-112.9699999999999989
11
130.9699999999999989
21
-112.9699999999999989
0
LINE
8
BLACK
6
CONTINUOUS
10
128.4300000000000068
20
-130.1149999999999807
11
128.4300000000000068
21
-112.9699999999999989
0
LINE
8
BLACK
6
CONTINUOUS
10
129.0649999999999977
20
-130.75
11
128.4300000000000068
21
-130.1149999999999807
0
LINE
8
BLACK
6
CONTINUOUS
10
130.9699999999999989
20
-112.9699999999999989
11
130.9699999999999989
21
-130.75
0
LINE
8
BLACK
6
CONTINUOUS
10
130.9699999999999989
20
-130.75
11
129.0649999999999977
21
-130.75
0
LINE
8
BLACK
6
CONTINUOUS
10
139.1800000000000068
20
-55.6699999999999946
11
121.1299999999999955
21
-55.6699999999999946
0
ARC
8
BLACK
10
119.1397999999999939
20
-60.9097999999999971
40
1.0002000199960006
50
-89.98854314
51
-0.01145686
0
LINE
8
BLACK
6
CONTINUOUS
10
218.482325000000003
20
-125.0982920000000007
11
213.1499999999999773
21
-123.1599999999999966
0
LINE
8
BLACK
6
CONTINUOUS
10
176.167131999999981
20
-53.4299999999999997
11
158.2300029999999822
21
-53.4299999999999997
0
LINE
8
BLACK
6
CONTINUOUS
10
212.4920199999999966
20
-122.2203059999999937
11
212.4924000000000035
21
-60.25
0
ARC
8
BLACK
10
173.3513999999999839
20
-109.0082999999999913
40
1.0000580049997099
50
14.47935035
51
89.99427075
0
ARC
8
BLACK
10
158.2299999999999898
20
-52.4299999999999997
40
1.0000000000045
50
-180.00000000
51
-89.99982811
0
LINE
8
BLACK
6
CONTINUOUS
10
180.9014999999999986
20
-110.5082400000000007
11
180.9014999999999986
21
-115.3144769999999966
0
ARC
8
BLACK
10
194.445699999999988
20
-138.3405999999999949
40
4.0001560057309016
50
70.00192972
51
79.97794712
0
ARC
8
BLACK
10
179.9014999999999986
20
-110.5082999999999913
40
1.0000599999999999
50
0.00343775
51
90.00000000
0
ARC
8
BLACK
10
218.1402999999999963
20
-126.0379999999999967
40
1.0000161128146885
50
-19.99877087
51
70.00003989
0
LINE
8
BLACK
6
CONTINUOUS
10
175.2879920000000027
20
-109.5082400000000007
11
179.9014999999999986
21
-109.5082400000000007
0
ARC
8
BLACK
10
107.4882999999999953
20
-62.9097999999999971
40
0.999759020004821
50
-270.01381104
51
-179.98853808
0
ARC
8
BLACK
10
213.4921999999999969
20
-122.2201999999999913
40
1.0001624268087659
50
-179.99392774
51
-110.00757809
0
ARC
8
BLACK
10
190.3399000000000001
20
-57.1201000000000008
40
1.0001000049994999
50
0.00572901
51
89.99427099
0
LINE
8
BLACK
6
CONTINUOUS
10
190.3400000000000034
20
-56.1199999999999974
11
178.167131999999981
21
-56.1199949999999959
0
ARC
8
BLACK
10
156.2299999999999898
20
-52.1199999999999974
40
1.0000000000045
50
0.00000000
51
89.99982811
0
LINE
8
BLACK
6
CONTINUOUS
10
107.4799999999999898
20
-133.6299999999999955
11
130.9214999999999804
21
-133.6299999999999955
0
ARC
8
BLACK
10
132.910899999999998
20
-109.008199999999988
40
0.9999000008405841
50
-270.00572981
51
-179.99765064
0
ARC
8
BLACK
10
175.2879999999999825
20
-108.5082999999999913
40
0.9999400000320018
50
-165.52587788
51
-90.00045839
0
ARC
8
BLACK
10
213.1182000000000016
20
-139.8153000000000077
40
0.9999527770774977
50
-110.00088757
51
-19.99317134
0
LINE
8
BLACK
6
CONTINUOUS
10
180.855907000000002
20
-115.8355129999999917
11
178.289999999999992
21
-130.4082400000000064
0
ARC
8
BLACK
10
178.1670000000000016
20
-55.1201000000000008
40
0.9998950087129147
50
-180.00601685
51
-89.99243616
0
ARC
8
BLACK
10
130.9214999999999804
20
-132.6299999999999955
40
1.
50
-90.00000000
51
-0.00000000
0
LINE
8
BLACK
6
CONTINUOUS
10
157.2300029999999822
20
-52.4299999999999997
11
157.2300029999999822
21
-52.1199999999999974
0
LINE
8
BLACK
6
CONTINUOUS
10
179.1007799999999861
20
-131.5666609999999821
11
195.1418359999999836
21
-134.4014829999999847
0
LINE
8
BLACK
6
CONTINUOUS
10
132.9110000000000014
20
-108.0082409999999982
11
173.3514999999999873
21
-108.0082419999999956
0
LINE
8
BLACK
6
CONTINUOUS
10
119.1400000000000006
20
-61.9099999999999966
11
107.4885409999999979
21
-61.9099999999999966
0
ARC
8
BLACK
10
192.3399000000000001
20
-58.2500999999999962
40
0.9999000050004999
50
-180.00573015
51
-89.99426985
0
LINE
8
BLACK
6
CONTINUOUS
10
195.8137079999999912
20
-134.5816350000000057
11
212.7762039999999786
21
-140.7548809999999833
0
ARC
8
BLACK
10
179.2746999999999957
20
-130.5819999999999936
40
0.9999027209288912
50
-190.00738232
51
-100.01679939
0
ARC
8
BLACK
10
121.1297999999999888
20
-56.6697999999999951
40
0.9998000200040006
50
-270.01146145
51
-179.98853855
0
ARC
8
BLACK
10
176.1670000000000016
20
-54.4300999999999959
40
1.0001000087111287
50
0.00572882
51
89.99243771
0
LINE
8
BLACK
6
CONTINUOUS
10
131.9214999999999804
20
-132.6299999999999955
11
131.9110000000000014
21
-109.0082409999999982
0
LINE
8
BLACK
6
CONTINUOUS
10
177.167131999999981
20
-55.1199949999999959
11
177.167131999999981
21
-54.4299999999999997
0
ARC
8
BLACK
10
141.1800999999999817
20
-52.1201000000000008
40
1.0001000049994999
50
90.00572901
51
179.99427099
0
LINE
8
BLACK
6
CONTINUOUS
10
140.1800000000000068
20
-52.1199999999999974
11
140.1800000000000068
21
-54.6699999999999946
0
LINE
8
BLACK
6
CONTINUOUS
10
156.2300029999999822
20
-51.1199999999999974
11
141.1800000000000068
21
-51.1199999999999974
0
ARC
8
BLACK
10
139.1800999999999817
20
-54.6700999999999979
40
0.9999000050004999
50
-90.00573015
51
0.00573015
0
LINE
8
BLACK
6
CONTINUOUS
10
191.3400000000000034
20
-58.25
11
191.3400000000000034
21
-57.1199999999999974
0
ARC
8
BLACK
10
177.9025999999999783
20
-115.3145999999999987
40
2.9989000025224248
50
-10.00311006
51
0.00234999
0
LINE
8
BLACK
6
CONTINUOUS
10
214.0578889999999888
20
-140.1571919999999807
11
219.0799999999999841
21
-126.3799999999999955
0
LINE
8
BLACK
6
CONTINUOUS
10
106.4885409999999979
20
-62.9099999999999966
11
106.4799999999999898
21
-132.6299999999999955
0
ARC
8
BLACK
10
211.4924999999999784
20
-60.2498999999999967
40
0.9999000050004999
50
-0.00573015
51
90.00573015
0
LINE
8
BLACK
6
CONTINUOUS
10
120.1299999999999955
20
-56.6699999999999946
11
120.1400000000000006
21
-60.9099999999999966
0
ARC
8
BLACK
10
107.4799999999999898
20
-132.6299999999999955
40
1.
50
-180.00000000
51
-90.00000000
0
LINE
8
BLACK
6
CONTINUOUS
10
192.3400000000000034
20
-59.25
11
211.4924000000000035
21
-59.25
0
LINE
8
BLACK
6
CONTINUOUS
10
197.8140999999999963
20
-69.0442000000000036
11
197.8140999999999963
21
-68.0027999999999935
0
LINE
8
BLACK
6
CONTINUOUS
10
198.4998999999999967
20
-67.3169999999999931
11
200.1000999999999976
21
-67.3169999999999931
0
LINE
8
BLACK
6
CONTINUOUS
10
200.0870999999999924
20
-69.7270000000000039
11
198.4998999999999967
21
-69.7299999999999898
0
LINE
8
BLACK
6
CONTINUOUS
10
200.4810999999999979
20
-67.6979999999999933
11
200.4779999999999802
21
-69.3460000000000036
0
LINE
8
BLACK
6
CONTINUOUS
10
200.98599999999999
20
-63.3262
11
200.98599999999999
21
-61.649799999999999
0
LINE
8
BLACK
6
CONTINUOUS
10
201.6717999999999904
20
-60.9639999999999986
11
203.3481999999999914
21
-60.9639999999999986
0
LINE
8
BLACK
6
CONTINUOUS
10
201.6717999999999904
20
-64.0120000000000005
11
203.3481999999999914
21
-64.0120000000000005
0
LINE
8
BLACK
6
CONTINUOUS
10
204.0339999999999918
20
-63.3262
11
204.0339999999999918
21
-61.649799999999999
0
LINE
8
BLACK
6
CONTINUOUS
10
205.9534209999999916
20
-78.7442810000000009
11
205.9489999999999839
21
-76.5400059999999911
0
LINE
8
BLACK
6
CONTINUOUS
10
206.3299999999999841
20
-76.1590059999999909
11
208.2099989999999821
21
-76.1590010000000035
0
LINE
8
BLACK
6
CONTINUOUS
10
207.7490959999999802
20
-79.1363619999999912
11
206.8206929999999772
21
-79.1195749999999975
0
LINE
8
BLACK
6
CONTINUOUS
10
208.5909989999999823
20
-76.5400009999999895
11
208.5860519999999951
21
-78.7376170000000002
0
ARC
8
BLACK
10
198.0618529999999851
20
-69.482247000000001
40
0.5032561208947189
50
-29.49186786
51
119.49186786
0
ARC
8
BLACK
10
198.0618529999999851
20
-67.5647529999999961
40
0.5032561208947189
50
-119.49186786
51
29.49186786
0
ARC
8
BLACK
10
200.1001009999999951
20
-67.6979989999999958
40
0.3809990000013123
50
-0.00015038
51
90.00015038
0
ARC
8
BLACK
10
200.0970009999999775
20
-69.3460010000000011
40
0.3809990000013123
50
-90.00015038
51
0.00015038
0
ARC
8
BLACK
10
201.2337529999999788
20
-63.7642469999999975
40
0.5032561208947189
50
-29.49186786
51
119.49186786
0
ARC
8
BLACK
10
201.2337529999999788
20
-61.2117529999999945
40
0.5032561208947189
50
-119.49186786
51
29.49186786
0
ARC
8
BLACK
10
203.786247000000003
20
-63.7642469999999975
40
0.5032561208947189
50
-299.49186786
51
-150.50813214
0
ARC
8
BLACK
10
203.7862499999999955
20
-61.211749999999995
40
0.5032572552879888
50
-209.49140242
51
-60.50859758
0
ARC
8
BLACK
10
206.3299999999999841
20
-76.539999999999992
40
0.381000000047244
50
-270.00000000
51
-179.99909770
0
ARC
8
BLACK
10
206.3100000000000023
20
-79.1099999999999994
40
0.5107827035070784
50
-1.07411462
51
134.27501464
0
ARC
8
BLACK
10
208.25
20
-79.1099999999999994
40
0.5015972211446151
50
-312.06424589
51
-176.98736859
0
ARC
8
BLACK
10
208.2099999999999795
20
-76.539999999999992
40
0.3809990000013123
50
-0.00015038
51
90.00015038
  0
ENDSEC
  0
EOF
